<svg width="61" height="61" viewBox="0 0 61 61" fill="none" xmlns="http://www.w3.org/2000/svg">
<rect x="0.957031" y="0.227051" width="60" height="60" rx="12" fill="#FFEDEC"/>
<path d="M37 25.5V28.5M37 28.5V31.5M37 28.5H40M37 28.5H34M31.75 24.375C31.75 26.239 30.239 27.75 28.375 27.75C26.511 27.75 25 26.239 25 24.375C25 22.511 26.511 21 28.375 21C30.239 21 31.75 22.511 31.75 24.375ZM22.0009 37.2343C22.0003 37.198 22 37.1615 22 37.125C22 33.6042 24.8542 30.75 28.375 30.75C31.8958 30.75 34.75 33.6042 34.75 37.125V37.1276C34.75 37.1632 34.7497 37.1988 34.7491 37.2343C32.8874 38.3552 30.7065 39 28.375 39C26.0435 39 23.8626 38.3552 22.0009 37.2343Z" stroke="#EA4E4B" stroke-width="1.47134" stroke-linecap="round" stroke-linejoin="round"/>
</svg>
