<svg width="61" height="61" viewBox="0 0 61 61" fill="none" xmlns="http://www.w3.org/2000/svg">
<rect x="0.957153" y="0.461426" width="60" height="60" rx="12" fill="#E5F6FE"/>
<g clip-path="url(#clip0_4_6487)">
<path d="M33.1064 18.0004C33.5855 18.0943 34.0739 18.1554 34.5436 18.2916C37.3381 19.0806 39.4281 21.5511 39.771 24.4348C40.2125 28.1734 37.8829 31.5926 34.2759 32.499C30.2367 33.5135 26.0943 30.827 25.371 26.7221C24.7416 23.1714 26.5968 19.7992 29.9267 18.5029C30.5232 18.2728 31.1761 18.193 31.8054 18.0427C31.8665 18.0286 31.9275 18.0145 31.9839 18.0004C32.3549 18.0004 32.7307 18.0004 33.1064 18.0004ZM38.423 25.3507C38.4136 22.0536 35.7694 19.3953 32.5099 19.4094C29.2692 19.4188 26.6344 22.1053 26.6438 25.3789C26.6532 28.6525 29.3115 31.3202 32.5522 31.3108C35.7882 31.3014 38.4324 28.6196 38.423 25.3507Z" fill="#116487"/>
<path d="M22.6892 35.0962C22.7362 34.9036 22.7643 34.7346 22.8207 34.5749C23.1448 33.659 23.8352 33.2081 24.7557 33.0015C26.3244 32.6492 27.818 32.8089 29.2598 33.5463C29.7765 33.8093 30.3213 34.0394 30.8755 34.2273C31.209 34.34 31.5753 34.3823 31.9323 34.3964C32.6414 34.4199 33.3553 34.4011 34.0645 34.4058C34.5812 34.4058 34.8583 34.6923 34.8442 35.2089C34.8254 35.9087 34.6047 36.5381 34.182 37.1533C34.5295 37.1533 34.8442 37.1627 35.1542 37.1486C35.2152 37.144 35.2763 37.0594 35.3326 37.0031C35.9902 36.3455 36.643 35.6833 37.3052 35.0351C38.5874 33.7811 40.6023 33.7436 41.9362 34.9412C42.3589 35.3216 42.373 35.7303 41.9737 36.1295C40.3299 37.778 38.6814 39.4218 37.0375 41.0657C36.4035 41.6997 35.6379 42.0097 34.7456 42.0097C30.0207 42.0097 25.2959 42.0097 20.571 42.0097C20.0121 42.0003 19.7444 41.7326 19.7444 41.1784C19.7444 39.4218 19.7444 37.6653 19.7444 35.904C19.7444 35.3545 20.0074 35.0962 20.5663 35.0962C21.2661 35.0915 21.9706 35.0962 22.6892 35.0962ZM24.1076 40.596C24.2203 40.596 24.3049 40.596 24.3894 40.596C27.8086 40.596 31.2324 40.5913 34.6516 40.6007C35.2246 40.6007 35.6943 40.4128 36.0982 40.0042C37.4978 38.5952 38.9021 37.1956 40.3064 35.7913C40.3534 35.7443 40.391 35.6927 40.4473 35.6316C40.391 35.6081 40.3581 35.5847 40.3205 35.5753C39.5268 35.3263 38.827 35.4907 38.2305 36.0778C37.5213 36.7823 36.8074 37.4821 36.1123 38.2007C35.8634 38.4543 35.5957 38.567 35.2434 38.5623C33.0501 38.553 30.852 38.553 28.6587 38.553C28.3675 38.553 28.081 38.5576 27.7898 38.5436C27.5174 38.5295 27.3201 38.3792 27.2074 38.1349C27.0994 37.8954 27.1229 37.6606 27.2778 37.4445C27.4422 37.2097 27.6818 37.1393 27.9542 37.1393C28.9921 37.144 30.0301 37.144 31.0728 37.144C31.2747 37.144 31.4814 37.144 31.6786 37.1252C32.3972 37.0453 33.1064 36.4629 33.2849 35.8007C32.8575 35.8007 32.4395 35.796 32.0215 35.8007C31.3593 35.8101 30.7111 35.7068 30.1005 35.4531C29.5369 35.223 28.978 34.9835 28.4332 34.7111C27.2638 34.1334 26.0661 34.0958 24.8309 34.434C24.3236 34.5702 24.1076 34.8614 24.1076 35.3827C24.1076 36.6226 24.1076 37.8672 24.1076 39.1072C24.1076 39.5956 24.1076 40.0794 24.1076 40.596ZM22.6892 40.5819C22.6892 39.2152 22.6892 37.8672 22.6892 36.5146C22.1726 36.5146 21.6747 36.5146 21.1628 36.5146C21.1628 37.8766 21.1628 39.2246 21.1628 40.5819C21.6747 40.5819 22.1726 40.5819 22.6892 40.5819Z" fill="#116487"/>
<g clip-path="url(#clip1_4_6487)">
<path d="M33.6904 23.2534C33.6904 23.0721 33.6948 22.8904 33.6904 22.7092C33.6869 22.6133 33.7229 22.5873 33.814 22.5886C34.0722 22.5935 34.3309 22.5952 34.5887 22.5886C34.6987 22.5855 34.7299 22.6225 34.7282 22.7294C34.7225 23.0699 34.7313 23.4109 34.7238 23.7518C34.7212 23.8768 34.7506 23.9278 34.8866 23.9225C35.1831 23.9155 35.1835 23.9225 35.1835 24.2278C35.1835 24.4091 35.1796 24.5908 35.1835 24.772C35.1862 24.86 35.1629 24.8952 35.0656 24.897C34.7251 24.904 34.7251 24.9084 34.7251 25.2573C34.7251 25.4276 34.7295 25.5983 34.7251 25.7685C34.722 25.8618 34.7537 25.8899 34.847 25.893C35.1835 25.9027 35.1835 25.9062 35.1835 26.2401C35.1835 26.4104 35.1796 26.5811 35.1835 26.7513C35.1866 26.8437 35.1558 26.8723 35.0617 26.8741C34.7247 26.8811 34.7251 26.8851 34.7251 27.2212C34.7251 27.4794 34.7212 27.7381 34.7251 27.9959C34.7251 28.098 34.6912 28.1279 34.5931 28.1257C34.3076 28.12 34.0212 28.1196 33.7357 28.1257C33.6955 28.1296 33.6551 28.1211 33.6198 28.1014C33.5846 28.0816 33.5563 28.0516 33.5386 28.0153C33.3345 27.6765 33.1215 27.3431 32.9192 27.0034C32.8628 26.9084 32.8026 26.8657 32.6864 26.8679C32.2962 26.8763 31.906 26.8745 31.5157 26.8679C31.4075 26.8679 31.3758 26.8992 31.378 27.0065C31.3846 27.3307 31.3754 27.655 31.3829 27.9792C31.3855 28.0971 31.3472 28.1288 31.2333 28.1248C30.9861 28.1169 30.7384 28.1152 30.4916 28.1248C30.3618 28.1306 30.3349 28.0808 30.3371 27.9643C30.3442 27.651 30.3341 27.3378 30.342 27.0245C30.3451 26.904 30.3147 26.8631 30.1876 26.8662C29.895 26.8732 29.8946 26.8662 29.8946 26.5771C29.8946 26.3849 29.8981 26.1922 29.8946 25.9999C29.8946 25.9119 29.9249 25.8895 30.0089 25.8864C30.3411 25.8732 30.3411 25.8701 30.3411 25.5345C30.3411 25.3642 30.3363 25.1935 30.3411 25.0232C30.3446 24.9247 30.3143 24.8913 30.2118 24.8913C29.8946 24.8882 29.8946 24.8838 29.8946 24.5604C29.8946 24.3902 29.8998 24.2195 29.8946 24.0492C29.8902 23.9489 29.9218 23.9172 30.0239 23.9172C30.342 23.9124 30.342 23.9076 30.342 23.5811C30.342 23.2952 30.3451 23.0092 30.342 22.7237C30.342 22.6273 30.3657 22.5864 30.4713 22.5891C30.7516 22.5957 31.0318 22.5948 31.312 22.5891C31.3498 22.586 31.3875 22.5946 31.4202 22.6136C31.4529 22.6327 31.479 22.6612 31.4951 22.6955C31.715 23.0624 31.9447 23.4249 32.1647 23.7927C32.2183 23.8807 32.2751 23.9247 32.3846 23.9247C32.7749 23.9177 33.1651 23.9186 33.5553 23.9247C33.6627 23.9247 33.7 23.8935 33.6952 23.7844C33.6868 23.6084 33.6952 23.4324 33.6952 23.2564L33.6904 23.2534ZM32.8391 24.8943C33.0437 25.2283 33.2311 25.5358 33.4211 25.842C33.4735 25.926 33.561 25.8886 33.6327 25.886C33.7207 25.8825 33.6882 25.805 33.6886 25.7571C33.6917 25.5098 33.6886 25.2626 33.6886 25.0153C33.6886 24.9555 33.7 24.8921 33.6037 24.8935C33.3604 24.8965 33.1154 24.8943 32.8391 24.8943ZM32.2262 25.8895L31.6438 24.9454C31.591 24.8596 31.5052 24.8948 31.4344 24.8979C31.3464 24.9023 31.3824 24.9801 31.382 25.0268C31.3785 25.2736 31.382 25.5204 31.382 25.7672C31.382 25.8253 31.3662 25.8917 31.4643 25.8904C31.7071 25.8877 31.9513 25.8895 32.2262 25.8895Z" fill="#116487"/>
</g>
</g>
<defs>
<clipPath id="clip0_4_6487">
<rect width="22.5112" height="24" fill="white" transform="translate(19.7444 18.0001)"/>
</clipPath>
<clipPath id="clip1_4_6487">
<rect width="5.29073" height="5.5393" fill="white" transform="translate(29.8916 22.5878)"/>
</clipPath>
</defs>
</svg>
