<svg width="22" height="23" viewBox="0 0 22 23" fill="none" xmlns="http://www.w3.org/2000/svg">
<path d="M20.9802 17.797V11.0075C20.9802 10.3536 20.9796 10.0265 20.9001 9.72222C20.8297 9.45256 20.714 9.19738 20.5575 8.96679C20.3808 8.70658 20.1352 8.49079 19.6431 8.06019L13.769 2.92029C12.8553 2.12081 12.3984 1.72128 11.8843 1.56923C11.4313 1.43526 10.9484 1.43526 10.4953 1.56923C9.98158 1.72116 9.5254 2.12032 8.61309 2.91859L2.73698 8.06019C2.24485 8.4908 1.99936 8.70658 1.82272 8.96679C1.66619 9.19738 1.54963 9.45256 1.47917 9.72222C1.39966 10.0265 1.39966 10.3536 1.39966 11.0075V17.797C1.39966 18.9375 1.39966 19.5074 1.58597 19.9572C1.83438 20.557 2.31054 21.034 2.91027 21.2824C3.36006 21.4687 3.93027 21.4687 5.0707 21.4687C6.21112 21.4687 6.78196 21.4687 7.23176 21.2824C7.83148 21.034 8.30752 20.5571 8.55593 19.9573C8.74224 19.5076 8.74236 18.9373 8.74236 17.7969V16.5731C8.74236 15.2214 9.83818 14.1256 11.1899 14.1256C12.5417 14.1256 13.6375 15.2214 13.6375 16.5731V17.7969C13.6375 18.9373 13.6375 19.5076 13.8238 19.9573C14.0722 20.5571 14.5484 21.034 15.1481 21.2824C15.5979 21.4687 16.1681 21.4687 17.3085 21.4687C18.449 21.4687 19.0198 21.4687 19.4696 21.2824C20.0693 21.034 20.5454 20.557 20.7938 19.9572C20.9801 19.5074 20.9802 18.9375 20.9802 17.797Z" stroke="#8D8E8D" stroke-width="2" stroke-linecap="round" stroke-linejoin="round"/>
</svg>
