<svg width="61" height="61" viewBox="0 0 61 61" fill="none" xmlns="http://www.w3.org/2000/svg">
<rect x="0.957031" y="0.110352" width="60" height="60" rx="12" fill="#F0F7EB"/>
<g clip-path="url(#clip0_4_6451)">
<path d="M16.9962 37.6189C16.9962 32.7442 16.9962 27.8757 16.9962 23.0011C17.0087 22.9823 17.0213 22.9635 17.0275 22.9447C17.2218 21.8795 18.3371 21.0838 19.6591 21.4096C23.3371 22.3244 27.0025 22.1865 30.6303 21.065C34.8283 19.7617 39.0576 19.6427 43.3183 20.7517C44.4336 21.0399 45.01 21.7667 45.01 22.9071C45.01 27.4371 45.01 31.961 45.01 36.491C45.01 36.585 45.01 36.679 45.0037 36.773C44.9411 37.9823 43.8321 38.8469 42.6416 38.6276C41.7143 38.4522 40.7869 38.2391 39.8471 38.1264C36.9774 37.7818 34.1516 38.0574 31.3947 38.9158C27.1341 40.2442 22.8421 40.3569 18.5313 39.179C18.005 39.0349 17.5852 38.7529 17.3032 38.283C17.1779 38.0825 17.0965 37.8444 16.9962 37.6189ZM19.0012 23.3582C18.995 23.4397 18.9887 23.5211 18.9887 23.6026C18.9887 28.07 18.995 32.5311 18.995 36.9985C18.995 37.1865 19.0451 37.268 19.2331 37.3181C20.7493 37.7128 22.2907 37.9384 23.8571 37.9948C26.3509 38.0825 28.7631 37.6502 31.1441 36.9296C34.2894 35.971 37.4975 35.7579 40.7493 36.2404C41.5012 36.3532 42.2406 36.5098 43.0113 36.6477C43.0113 36.0023 43.0113 35.3569 43.0113 34.7178C43.0113 30.8331 43.0113 26.9547 43.0113 23.07C43.0113 22.9071 43.0426 22.7567 42.8045 22.694C41.3258 22.3118 39.8283 22.0737 38.3057 22.0173C35.8496 21.9234 33.4561 22.2868 31.1065 23.0136C27.8671 24.0098 24.5714 24.2605 21.2193 23.7592C20.4862 23.6464 19.7531 23.4898 19.0012 23.3582Z" fill="#11453B"/>
<path d="M38.5002 26.0025C38.0239 26.0025 37.5414 26.0088 37.0652 26.0025C36.4574 25.9962 36.0062 25.5764 36.0062 25.0062C36.0062 24.436 36.4449 24.0099 37.0589 24.0036C38.0302 23.9973 38.9952 23.9973 39.9664 24.0036C40.568 24.0099 41.0192 24.4422 41.0129 25.0125C41.0066 25.5701 40.568 25.99 39.979 25.9962C39.4777 26.0088 38.9889 26.0025 38.5002 26.0025Z" fill="#11453B"/>
<path d="M23.5001 35.9964C23.0239 35.9964 22.5414 36.0026 22.0652 35.9964C21.4511 35.9901 21.0062 35.5703 20.9999 35.0063C20.9937 34.4361 21.4386 34.0037 22.0464 33.9975C23.0176 33.9912 23.9826 33.9912 24.9539 33.9975C25.5617 33.9975 26.0066 34.4361 26.0003 35.0001C25.9941 35.564 25.5492 35.9838 24.9414 35.9901C24.4589 35.9964 23.9764 35.9964 23.5001 35.9964Z" fill="#11453B"/>
<g clip-path="url(#clip1_4_6451)">
<path d="M32.6107 27.2005C32.6107 26.9479 32.6168 26.6947 32.6107 26.4421C32.6058 26.3084 32.6561 26.2723 32.783 26.2741C33.1429 26.2809 33.5034 26.2833 33.8627 26.2741C34.0159 26.2698 34.0595 26.3213 34.057 26.4703C34.0491 26.9448 34.0613 27.42 34.0509 27.8952C34.0472 28.0693 34.0883 28.1404 34.2777 28.133C34.691 28.1232 34.6916 28.133 34.6916 28.5585C34.6916 28.8111 34.6861 29.0643 34.6916 29.3169C34.6953 29.4396 34.6628 29.4886 34.5273 29.4911C34.0527 29.5009 34.0527 29.507 34.0527 29.9932C34.0527 30.2305 34.0589 30.4683 34.0527 30.7056C34.0484 30.8356 34.0926 30.8748 34.2226 30.8791C34.6916 30.8926 34.6916 30.8975 34.6916 31.3629C34.6916 31.6001 34.6861 31.838 34.6916 32.0753C34.6959 32.204 34.653 32.2439 34.5218 32.2463C34.0521 32.2562 34.0527 32.2617 34.0527 32.7301C34.0527 33.09 34.0472 33.4505 34.0527 33.8098C34.0527 33.952 34.0055 33.9937 33.8688 33.9906C33.4709 33.9827 33.0718 33.982 32.6739 33.9906C32.6179 33.996 32.5615 33.9842 32.5124 33.9567C32.4633 33.9292 32.4238 33.8873 32.3992 33.8367C32.1147 33.3646 31.818 32.8999 31.5359 32.4266C31.4575 32.2942 31.3735 32.2347 31.2116 32.2378C30.6678 32.2494 30.124 32.247 29.5801 32.2378C29.4293 32.2378 29.3852 32.2813 29.3882 32.4309C29.3974 32.8827 29.3846 33.3346 29.395 33.7865C29.3987 33.9508 29.3453 33.9949 29.1865 33.9894C28.842 33.9784 28.4968 33.9759 28.1528 33.9894C27.972 33.9974 27.9346 33.9281 27.9376 33.7656C27.9475 33.3291 27.9334 32.8926 27.9444 32.456C27.9487 32.288 27.9064 32.231 27.7292 32.2353C27.3215 32.2451 27.3209 32.2353 27.3209 31.8325C27.3209 31.5646 27.3258 31.296 27.3209 31.0281C27.3209 30.9055 27.3632 30.8742 27.4803 30.8699C27.9432 30.8515 27.9432 30.8472 27.9432 30.3794C27.9432 30.1422 27.9364 29.9043 27.9432 29.667C27.9481 29.5297 27.9058 29.4831 27.7629 29.4831C27.3209 29.4788 27.3209 29.4727 27.3209 29.022C27.3209 28.7848 27.3282 28.5469 27.3209 28.3096C27.3147 28.1698 27.3589 28.1257 27.5011 28.1257C27.9444 28.1189 27.9444 28.1122 27.9444 27.6573C27.9444 27.2588 27.9487 26.8602 27.9444 26.4623C27.9444 26.3281 27.9775 26.271 28.1246 26.2747C28.5152 26.2839 28.9057 26.2827 29.2963 26.2747C29.3488 26.2705 29.4014 26.2825 29.447 26.309C29.4926 26.3355 29.529 26.3753 29.5513 26.4231C29.8579 26.9344 30.1779 27.4396 30.4845 27.9522C30.5593 28.0748 30.6384 28.1361 30.791 28.1361C31.3348 28.1263 31.8787 28.1275 32.4225 28.1361C32.5721 28.1361 32.6242 28.0926 32.6175 27.9405C32.6058 27.6953 32.6175 27.45 32.6175 27.2048L32.6107 27.2005ZM31.4244 29.4874C31.7095 29.9527 31.9706 30.3813 32.2355 30.808C32.3085 30.9251 32.4305 30.873 32.5304 30.8693C32.653 30.8644 32.6076 30.7565 32.6083 30.6897C32.6126 30.3451 32.6083 30.0006 32.6083 29.656C32.6083 29.5726 32.6242 29.4843 32.4899 29.4862C32.1509 29.4904 31.8094 29.4874 31.4244 29.4874ZM30.5703 30.8742L29.7586 29.5585C29.685 29.4389 29.5654 29.488 29.4667 29.4923C29.3441 29.4984 29.3944 29.6069 29.3938 29.6719C29.3889 30.0159 29.3938 30.3598 29.3938 30.7038C29.3938 30.7847 29.3717 30.8773 29.5084 30.8754C29.8468 30.8718 30.1871 30.8742 30.5703 30.8742Z" fill="#11453B"/>
</g>
</g>
<defs>
<clipPath id="clip0_4_6451">
<rect width="28.0075" height="20" fill="white" transform="translate(16.9962 20)"/>
</clipPath>
<clipPath id="clip1_4_6451">
<rect width="7.37318" height="7.71958" fill="white" transform="translate(27.3165 26.2733)"/>
</clipPath>
</defs>
</svg>
