<svg width="60" height="60" viewBox="0 0 60 60" fill="none" xmlns="http://www.w3.org/2000/svg">
<rect x="0.800049" width="58.4" height="60" rx="14.038" fill="#32A7E2" fill-opacity="0.1"/>
<g clip-path="url(#clip0_4_6502)">
<mask id="path-2-inside-1_4_6502" fill="white">
<path d="M24.2173 20C24.4592 20.2463 24.7414 20.4613 24.9385 20.7391C25.7985 21.9619 26.5958 23.2295 27.2319 24.5868C27.5812 25.3303 27.5454 25.4737 26.9273 26.0291C26.4928 26.4143 26.0628 26.804 25.6238 27.1847C25.5208 27.2743 25.5073 27.3639 25.5432 27.4983C26.1344 29.4916 27.2543 31.1355 28.831 32.4703C29.9105 33.3796 31.1199 34.0694 32.495 34.4501C32.6249 34.486 32.7145 34.477 32.8086 34.374C33.1579 33.9753 33.5163 33.5901 33.8612 33.187C34.5152 32.43 34.6361 32.3941 35.5275 32.8242C36.8981 33.4871 38.1837 34.2934 39.4155 35.1803C39.6395 35.3415 39.8007 35.5789 39.9933 35.785C39.9933 35.8745 39.9933 35.9641 39.9933 36.0537C39.8366 36.2687 39.6977 36.5016 39.5185 36.6987C38.4435 37.8633 37.2162 38.8533 35.9172 39.7536C35.5454 40.0134 35.1691 40.0537 34.7391 39.9731C33.373 39.7267 32.0874 39.2474 30.8735 38.5845C27.1602 36.5464 24.2173 33.6931 21.9821 30.1097C21.0952 28.6898 20.4323 27.1713 20.074 25.5184C19.9396 24.8958 19.9799 24.3583 20.401 23.8522C21.0639 23.0593 21.682 22.2262 22.3494 21.4378C22.8153 20.8913 23.3125 20.3673 23.9485 20C24.0381 20 24.1277 20 24.2173 20Z"/>
</mask>
<path d="M24.2173 20C24.4592 20.2463 24.7414 20.4613 24.9385 20.7391C25.7985 21.9619 26.5958 23.2295 27.2319 24.5868C27.5812 25.3303 27.5454 25.4737 26.9273 26.0291C26.4928 26.4143 26.0628 26.804 25.6238 27.1847C25.5208 27.2743 25.5073 27.3639 25.5432 27.4983C26.1344 29.4916 27.2543 31.1355 28.831 32.4703C29.9105 33.3796 31.1199 34.0694 32.495 34.4501C32.6249 34.486 32.7145 34.477 32.8086 34.374C33.1579 33.9753 33.5163 33.5901 33.8612 33.187C34.5152 32.43 34.6361 32.3941 35.5275 32.8242C36.8981 33.4871 38.1837 34.2934 39.4155 35.1803C39.6395 35.3415 39.8007 35.5789 39.9933 35.785C39.9933 35.8745 39.9933 35.9641 39.9933 36.0537C39.8366 36.2687 39.6977 36.5016 39.5185 36.6987C38.4435 37.8633 37.2162 38.8533 35.9172 39.7536C35.5454 40.0134 35.1691 40.0537 34.7391 39.9731C33.373 39.7267 32.0874 39.2474 30.8735 38.5845C27.1602 36.5464 24.2173 33.6931 21.9821 30.1097C21.0952 28.6898 20.4323 27.1713 20.074 25.5184C19.9396 24.8958 19.9799 24.3583 20.401 23.8522C21.0639 23.0593 21.682 22.2262 22.3494 21.4378C22.8153 20.8913 23.3125 20.3673 23.9485 20C24.0381 20 24.1277 20 24.2173 20Z" fill="#32A7E2"/>
<path d="M24.2173 20L24.5741 19.6497L24.4271 19.5H24.2173V20ZM24.9385 20.7391L25.3475 20.4514L25.3462 20.4497L24.9385 20.7391ZM27.2319 24.5868L26.7791 24.7989L26.7793 24.7994L27.2319 24.5868ZM26.9273 26.0291L27.259 26.4032L27.2615 26.401L26.9273 26.0291ZM25.6238 27.1847L25.2962 26.807L25.2957 26.8074L25.6238 27.1847ZM25.5432 27.4983L25.0599 27.6272L25.0638 27.6405L25.5432 27.4983ZM28.831 32.4703L28.5079 32.8519L28.5088 32.8527L28.831 32.4703ZM32.495 34.4501L32.3616 34.932L32.362 34.9321L32.495 34.4501ZM32.8086 34.374L33.1779 34.7112L33.1846 34.7035L32.8086 34.374ZM33.8612 33.187L33.4828 32.8601L33.4813 32.8619L33.8612 33.187ZM35.5275 32.8242L35.7452 32.374L35.7447 32.3738L35.5275 32.8242ZM39.4155 35.1803L39.7077 34.7745L39.4155 35.1803ZM39.9933 35.785H40.4933V35.5877L40.3586 35.4435L39.9933 35.785ZM39.9933 36.0537L40.3973 36.3483L40.4933 36.2167V36.0537H39.9933ZM39.5185 36.6987L39.8859 37.0379L39.8885 37.0351L39.5185 36.6987ZM35.9172 39.7536L35.6324 39.3427L35.6308 39.3438L35.9172 39.7536ZM34.7391 39.9731L34.8313 39.4816L34.8279 39.481L34.7391 39.9731ZM30.8735 38.5845L30.6329 39.0228L30.6339 39.0233L30.8735 38.5845ZM21.9821 30.1097L22.4064 29.8451L22.4062 29.8448L21.9821 30.1097ZM20.074 25.5184L19.5852 25.6239L19.5853 25.6244L20.074 25.5184ZM20.401 23.8522L20.0174 23.5314L20.0166 23.5324L20.401 23.8522ZM22.3494 21.4378L21.9689 21.1135L21.9678 21.1148L22.3494 21.4378ZM23.9485 20V19.5H23.8145L23.6985 19.567L23.9485 20ZM23.8605 20.3503C23.9879 20.48 24.145 20.6201 24.2501 20.7201C24.3686 20.8327 24.4605 20.9295 24.5307 21.0284L25.3462 20.4497C25.2194 20.2709 25.0716 20.1213 24.9392 19.9954C24.7935 19.8568 24.6886 19.7663 24.5741 19.6497L23.8605 20.3503ZM24.5295 21.0267C25.3803 22.2365 26.16 23.4778 26.7791 24.7989L27.6846 24.3746C27.0316 22.9812 26.2166 21.6873 25.3474 20.4514L24.5295 21.0267ZM26.7793 24.7994C26.8657 24.9831 26.9136 25.1001 26.9377 25.1848C26.949 25.2242 26.9524 25.2481 26.9534 25.2609C26.9539 25.2671 26.9538 25.2706 26.9537 25.272C26.9536 25.2728 26.9536 25.2732 26.9535 25.2734C26.9535 25.2734 26.9535 25.2735 26.9535 25.2735C26.9535 25.2735 26.9535 25.2735 26.9535 25.2735C26.9535 25.2735 26.9535 25.2735 26.9535 25.2736C26.9535 25.2736 26.9535 25.2737 26.9534 25.2739C26.9533 25.2742 26.9532 25.2748 26.9528 25.2757C26.9521 25.2776 26.9505 25.2815 26.9471 25.2878C26.9401 25.3009 26.9261 25.3229 26.8986 25.3564C26.8398 25.4278 26.7467 25.5192 26.5931 25.6572L27.2615 26.401C27.4169 26.2613 27.56 26.1264 27.671 25.9915C27.7857 25.852 27.8875 25.6873 27.9312 25.4834C27.9753 25.2784 27.9495 25.0861 27.8994 24.9106C27.8514 24.742 27.7727 24.5622 27.6844 24.3741L26.7793 24.7994ZM26.5956 25.655C26.1553 26.0453 25.7328 26.4284 25.2962 26.807L25.9514 27.5625C26.3928 27.1796 26.8302 26.7833 27.259 26.4032L26.5956 25.655ZM25.2957 26.8074C25.187 26.9019 25.0861 27.033 25.0445 27.2111C25.0059 27.3766 25.0328 27.5251 25.0601 27.6271L26.0263 27.3695C26.0177 27.3371 26.0334 27.3736 26.0183 27.4383C26.0104 27.4725 25.9965 27.503 25.9805 27.5273C25.9655 27.5501 25.9528 27.5612 25.9519 27.562L25.2957 26.8074ZM25.0638 27.6405C25.6846 29.7332 26.8619 31.4585 28.5079 32.8519L29.154 32.0887C27.6466 30.8125 26.5843 29.2499 26.0225 27.3561L25.0638 27.6405ZM28.5088 32.8527C29.6347 33.801 30.9069 34.5293 32.3616 34.932L32.6284 33.9683C31.3328 33.6095 30.1863 32.9582 29.1531 32.0879L28.5088 32.8527ZM32.362 34.9321C32.4585 34.9587 32.604 34.9881 32.7685 34.9534C32.9462 34.9158 33.0795 34.8187 33.1778 34.7111L32.4393 34.0369C32.4397 34.0364 32.4507 34.0244 32.4734 34.0102C32.4977 33.9951 32.5281 33.9821 32.5619 33.9749C32.6257 33.9615 32.6615 33.9774 32.628 33.9681L32.362 34.9321ZM33.1846 34.7035C33.5159 34.3255 33.8987 33.9123 34.2411 33.512L33.4813 32.8619C33.1339 33.2679 32.8 33.6252 32.4325 34.0444L33.1846 34.7035ZM34.2396 33.5138C34.4047 33.3227 34.5142 33.2034 34.6023 33.1259C34.6438 33.0894 34.6722 33.0698 34.6904 33.0594C34.7069 33.0499 34.7138 33.0485 34.7142 33.0484C34.7144 33.0484 34.7198 33.0469 34.7362 33.0484C34.7544 33.05 34.7857 33.0554 34.8358 33.0708C34.9425 33.1037 35.0864 33.1665 35.3102 33.2745L35.7447 32.3738C35.5229 32.2668 35.3174 32.1728 35.1303 32.1152C34.9364 32.0554 34.7235 32.0218 34.4965 32.0724C34.2712 32.1227 34.0925 32.2425 33.9419 32.375C33.7955 32.5037 33.6447 32.6727 33.4828 32.8601L34.2396 33.5138ZM35.3098 33.2743C36.648 33.9215 37.9084 34.7113 39.1234 35.586L39.7077 34.7745C38.459 33.8754 37.1483 33.0527 35.7452 32.374L35.3098 33.2743ZM39.1234 35.586C39.1893 35.6335 39.2561 35.6996 39.3404 35.7956C39.4086 35.8734 39.5282 36.0196 39.6281 36.1264L40.3586 35.4435C40.2659 35.3443 40.2085 35.2688 40.092 35.136C39.9915 35.0215 39.8657 34.8883 39.7077 34.7745L39.1234 35.586ZM39.4933 35.785C39.4933 35.7851 39.4933 35.7853 39.4933 35.7855C39.4933 35.7857 39.4933 35.7858 39.4933 35.786C39.4933 35.7862 39.4933 35.7864 39.4933 35.7865C39.4933 35.7867 39.4933 35.7869 39.4933 35.7871C39.4933 35.7872 39.4933 35.7874 39.4933 35.7876C39.4933 35.7878 39.4933 35.7879 39.4933 35.7881C39.4933 35.7883 39.4933 35.7885 39.4933 35.7886C39.4933 35.7888 39.4933 35.789 39.4933 35.7892C39.4933 35.7893 39.4933 35.7895 39.4933 35.7897C39.4933 35.7899 39.4933 35.79 39.4933 35.7902C39.4933 35.7904 39.4933 35.7906 39.4933 35.7907C39.4933 35.7909 39.4933 35.7911 39.4933 35.7913C39.4933 35.7914 39.4933 35.7916 39.4933 35.7918C39.4933 35.792 39.4933 35.7921 39.4933 35.7923C39.4933 35.7925 39.4933 35.7927 39.4933 35.7928C39.4933 35.793 39.4933 35.7932 39.4933 35.7934C39.4933 35.7935 39.4933 35.7937 39.4933 35.7939C39.4933 35.7941 39.4933 35.7942 39.4933 35.7944C39.4933 35.7946 39.4933 35.7948 39.4933 35.7949C39.4933 35.7951 39.4933 35.7953 39.4933 35.7955C39.4933 35.7956 39.4933 35.7958 39.4933 35.796C39.4933 35.7962 39.4933 35.7963 39.4933 35.7965C39.4933 35.7967 39.4933 35.7969 39.4933 35.797C39.4933 35.7972 39.4933 35.7974 39.4933 35.7976C39.4933 35.7977 39.4933 35.7979 39.4933 35.7981C39.4933 35.7983 39.4933 35.7984 39.4933 35.7986C39.4933 35.7988 39.4933 35.799 39.4933 35.7991C39.4933 35.7993 39.4933 35.7995 39.4933 35.7997C39.4933 35.7998 39.4933 35.8 39.4933 35.8002C39.4933 35.8004 39.4933 35.8005 39.4933 35.8007C39.4933 35.8009 39.4933 35.8011 39.4933 35.8012C39.4933 35.8014 39.4933 35.8016 39.4933 35.8018C39.4933 35.8019 39.4933 35.8021 39.4933 35.8023C39.4933 35.8025 39.4933 35.8026 39.4933 35.8028C39.4933 35.803 39.4933 35.8032 39.4933 35.8033C39.4933 35.8035 39.4933 35.8037 39.4933 35.8039C39.4933 35.804 39.4933 35.8042 39.4933 35.8044C39.4933 35.8046 39.4933 35.8047 39.4933 35.8049C39.4933 35.8051 39.4933 35.8053 39.4933 35.8054C39.4933 35.8056 39.4933 35.8058 39.4933 35.806C39.4933 35.8061 39.4933 35.8063 39.4933 35.8065C39.4933 35.8067 39.4933 35.8068 39.4933 35.807C39.4933 35.8072 39.4933 35.8074 39.4933 35.8075C39.4933 35.8077 39.4933 35.8079 39.4933 35.8081C39.4933 35.8082 39.4933 35.8084 39.4933 35.8086C39.4933 35.8088 39.4933 35.8089 39.4933 35.8091C39.4933 35.8093 39.4933 35.8095 39.4933 35.8096C39.4933 35.8098 39.4933 35.81 39.4933 35.8102C39.4933 35.8103 39.4933 35.8105 39.4933 35.8107C39.4933 35.8109 39.4933 35.811 39.4933 35.8112C39.4933 35.8114 39.4933 35.8116 39.4933 35.8117C39.4933 35.8119 39.4933 35.8121 39.4933 35.8123C39.4933 35.8124 39.4933 35.8126 39.4933 35.8128C39.4933 35.813 39.4933 35.8131 39.4933 35.8133C39.4933 35.8135 39.4933 35.8137 39.4933 35.8138C39.4933 35.814 39.4933 35.8142 39.4933 35.8144C39.4933 35.8145 39.4933 35.8147 39.4933 35.8149C39.4933 35.8151 39.4933 35.8152 39.4933 35.8154C39.4933 35.8156 39.4933 35.8158 39.4933 35.8159C39.4933 35.8161 39.4933 35.8163 39.4933 35.8165C39.4933 35.8166 39.4933 35.8168 39.4933 35.817C39.4933 35.8172 39.4933 35.8173 39.4933 35.8175C39.4933 35.8177 39.4933 35.8179 39.4933 35.818C39.4933 35.8182 39.4933 35.8184 39.4933 35.8186C39.4933 35.8187 39.4933 35.8189 39.4933 35.8191C39.4933 35.8193 39.4933 35.8194 39.4933 35.8196C39.4933 35.8198 39.4933 35.82 39.4933 35.8201C39.4933 35.8203 39.4933 35.8205 39.4933 35.8207C39.4933 35.8208 39.4933 35.821 39.4933 35.8212C39.4933 35.8214 39.4933 35.8215 39.4933 35.8217C39.4933 35.8219 39.4933 35.8221 39.4933 35.8222C39.4933 35.8224 39.4933 35.8226 39.4933 35.8228C39.4933 35.8229 39.4933 35.8231 39.4933 35.8233C39.4933 35.8235 39.4933 35.8236 39.4933 35.8238C39.4933 35.824 39.4933 35.8242 39.4933 35.8243C39.4933 35.8245 39.4933 35.8247 39.4933 35.8249C39.4933 35.825 39.4933 35.8252 39.4933 35.8254C39.4933 35.8256 39.4933 35.8257 39.4933 35.8259C39.4933 35.8261 39.4933 35.8263 39.4933 35.8264C39.4933 35.8266 39.4933 35.8268 39.4933 35.827C39.4933 35.8271 39.4933 35.8273 39.4933 35.8275C39.4933 35.8277 39.4933 35.8278 39.4933 35.828C39.4933 35.8282 39.4933 35.8284 39.4933 35.8285C39.4933 35.8287 39.4933 35.8289 39.4933 35.8291C39.4933 35.8292 39.4933 35.8294 39.4933 35.8296C39.4933 35.8298 39.4933 35.8299 39.4933 35.8301C39.4933 35.8303 39.4933 35.8305 39.4933 35.8306C39.4933 35.8308 39.4933 35.831 39.4933 35.8312C39.4933 35.8313 39.4933 35.8315 39.4933 35.8317C39.4933 35.8319 39.4933 35.832 39.4933 35.8322C39.4933 35.8324 39.4933 35.8326 39.4933 35.8327C39.4933 35.8329 39.4933 35.8331 39.4933 35.8333C39.4933 35.8334 39.4933 35.8336 39.4933 35.8338C39.4933 35.834 39.4933 35.8341 39.4933 35.8343C39.4933 35.8345 39.4933 35.8347 39.4933 35.8348C39.4933 35.835 39.4933 35.8352 39.4933 35.8354C39.4933 35.8355 39.4933 35.8357 39.4933 35.8359C39.4933 35.8361 39.4933 35.8362 39.4933 35.8364C39.4933 35.8366 39.4933 35.8368 39.4933 35.8369C39.4933 35.8371 39.4933 35.8373 39.4933 35.8375C39.4933 35.8376 39.4933 35.8378 39.4933 35.838C39.4933 35.8382 39.4933 35.8383 39.4933 35.8385C39.4933 35.8387 39.4933 35.8389 39.4933 35.839C39.4933 35.8392 39.4933 35.8394 39.4933 35.8396C39.4933 35.8397 39.4933 35.8399 39.4933 35.8401C39.4933 35.8403 39.4933 35.8404 39.4933 35.8406C39.4933 35.8408 39.4933 35.841 39.4933 35.8411C39.4933 35.8413 39.4933 35.8415 39.4933 35.8417C39.4933 35.8418 39.4933 35.842 39.4933 35.8422C39.4933 35.8424 39.4933 35.8425 39.4933 35.8427C39.4933 35.8429 39.4933 35.8431 39.4933 35.8432C39.4933 35.8434 39.4933 35.8436 39.4933 35.8438C39.4933 35.8439 39.4933 35.8441 39.4933 35.8443C39.4933 35.8445 39.4933 35.8446 39.4933 35.8448C39.4933 35.845 39.4933 35.8452 39.4933 35.8453C39.4933 35.8455 39.4933 35.8457 39.4933 35.8459C39.4933 35.846 39.4933 35.8462 39.4933 35.8464C39.4933 35.8466 39.4933 35.8467 39.4933 35.8469C39.4933 35.8471 39.4933 35.8473 39.4933 35.8474C39.4933 35.8476 39.4933 35.8478 39.4933 35.848C39.4933 35.8481 39.4933 35.8483 39.4933 35.8485C39.4933 35.8487 39.4933 35.8488 39.4933 35.849C39.4933 35.8492 39.4933 35.8494 39.4933 35.8495C39.4933 35.8497 39.4933 35.8499 39.4933 35.8501C39.4933 35.8502 39.4933 35.8504 39.4933 35.8506C39.4933 35.8508 39.4933 35.8509 39.4933 35.8511C39.4933 35.8513 39.4933 35.8515 39.4933 35.8516C39.4933 35.8518 39.4933 35.852 39.4933 35.8522C39.4933 35.8523 39.4933 35.8525 39.4933 35.8527C39.4933 35.8529 39.4933 35.853 39.4933 35.8532C39.4933 35.8534 39.4933 35.8536 39.4933 35.8537C39.4933 35.8539 39.4933 35.8541 39.4933 35.8543C39.4933 35.8544 39.4933 35.8546 39.4933 35.8548C39.4933 35.855 39.4933 35.8551 39.4933 35.8553C39.4933 35.8555 39.4933 35.8557 39.4933 35.8558C39.4933 35.856 39.4933 35.8562 39.4933 35.8564C39.4933 35.8565 39.4933 35.8567 39.4933 35.8569C39.4933 35.8571 39.4933 35.8572 39.4933 35.8574C39.4933 35.8576 39.4933 35.8578 39.4933 35.8579C39.4933 35.8581 39.4933 35.8583 39.4933 35.8585C39.4933 35.8586 39.4933 35.8588 39.4933 35.859C39.4933 35.8592 39.4933 35.8593 39.4933 35.8595C39.4933 35.8597 39.4933 35.8599 39.4933 35.86C39.4933 35.8602 39.4933 35.8604 39.4933 35.8606C39.4933 35.8607 39.4933 35.8609 39.4933 35.8611C39.4933 35.8613 39.4933 35.8614 39.4933 35.8616C39.4933 35.8618 39.4933 35.862 39.4933 35.8621C39.4933 35.8623 39.4933 35.8625 39.4933 35.8627C39.4933 35.8628 39.4933 35.863 39.4933 35.8632C39.4933 35.8633 39.4933 35.8635 39.4933 35.8637C39.4933 35.8639 39.4933 35.864 39.4933 35.8642C39.4933 35.8644 39.4933 35.8646 39.4933 35.8647C39.4933 35.8649 39.4933 35.8651 39.4933 35.8653C39.4933 35.8654 39.4933 35.8656 39.4933 35.8658C39.4933 35.866 39.4933 35.8661 39.4933 35.8663C39.4933 35.8665 39.4933 35.8667 39.4933 35.8668C39.4933 35.867 39.4933 35.8672 39.4933 35.8674C39.4933 35.8675 39.4933 35.8677 39.4933 35.8679C39.4933 35.8681 39.4933 35.8682 39.4933 35.8684C39.4933 35.8686 39.4933 35.8688 39.4933 35.8689C39.4933 35.8691 39.4933 35.8693 39.4933 35.8695C39.4933 35.8696 39.4933 35.8698 39.4933 35.87C39.4933 35.8702 39.4933 35.8703 39.4933 35.8705C39.4933 35.8707 39.4933 35.8709 39.4933 35.871C39.4933 35.8712 39.4933 35.8714 39.4933 35.8716C39.4933 35.8717 39.4933 35.8719 39.4933 35.8721C39.4933 35.8723 39.4933 35.8724 39.4933 35.8726C39.4933 35.8728 39.4933 35.873 39.4933 35.8731C39.4933 35.8733 39.4933 35.8735 39.4933 35.8737C39.4933 35.8738 39.4933 35.874 39.4933 35.8742C39.4933 35.8744 39.4933 35.8745 39.4933 35.8747C39.4933 35.8749 39.4933 35.8751 39.4933 35.8752C39.4933 35.8754 39.4933 35.8756 39.4933 35.8758C39.4933 35.8759 39.4933 35.8761 39.4933 35.8763C39.4933 35.8765 39.4933 35.8766 39.4933 35.8768C39.4933 35.877 39.4933 35.8772 39.4933 35.8773C39.4933 35.8775 39.4933 35.8777 39.4933 35.8779C39.4933 35.878 39.4933 35.8782 39.4933 35.8784C39.4933 35.8786 39.4933 35.8787 39.4933 35.8789C39.4933 35.8791 39.4933 35.8793 39.4933 35.8794C39.4933 35.8796 39.4933 35.8798 39.4933 35.88C39.4933 35.8801 39.4933 35.8803 39.4933 35.8805C39.4933 35.8807 39.4933 35.8808 39.4933 35.881C39.4933 35.8812 39.4933 35.8814 39.4933 35.8815C39.4933 35.8817 39.4933 35.8819 39.4933 35.8821C39.4933 35.8822 39.4933 35.8824 39.4933 35.8826C39.4933 35.8828 39.4933 35.8829 39.4933 35.8831C39.4933 35.8833 39.4933 35.8835 39.4933 35.8836C39.4933 35.8838 39.4933 35.884 39.4933 35.8842C39.4933 35.8843 39.4933 35.8845 39.4933 35.8847C39.4933 35.8849 39.4933 35.885 39.4933 35.8852C39.4933 35.8854 39.4933 35.8856 39.4933 35.8857C39.4933 35.8859 39.4933 35.8861 39.4933 35.8863C39.4933 35.8864 39.4933 35.8866 39.4933 35.8868C39.4933 35.887 39.4933 35.8871 39.4933 35.8873C39.4933 35.8875 39.4933 35.8877 39.4933 35.8878C39.4933 35.888 39.4933 35.8882 39.4933 35.8884C39.4933 35.8885 39.4933 35.8887 39.4933 35.8889C39.4933 35.8891 39.4933 35.8892 39.4933 35.8894C39.4933 35.8896 39.4933 35.8898 39.4933 35.8899C39.4933 35.8901 39.4933 35.8903 39.4933 35.8905C39.4933 35.8906 39.4933 35.8908 39.4933 35.891C39.4933 35.8912 39.4933 35.8913 39.4933 35.8915C39.4933 35.8917 39.4933 35.8919 39.4933 35.892C39.4933 35.8922 39.4933 35.8924 39.4933 35.8926C39.4933 35.8927 39.4933 35.8929 39.4933 35.8931C39.4933 35.8933 39.4933 35.8934 39.4933 35.8936C39.4933 35.8938 39.4933 35.894 39.4933 35.8941C39.4933 35.8943 39.4933 35.8945 39.4933 35.8947C39.4933 35.8948 39.4933 35.895 39.4933 35.8952C39.4933 35.8954 39.4933 35.8955 39.4933 35.8957C39.4933 35.8959 39.4933 35.8961 39.4933 35.8962C39.4933 35.8964 39.4933 35.8966 39.4933 35.8968C39.4933 35.8969 39.4933 35.8971 39.4933 35.8973C39.4933 35.8975 39.4933 35.8976 39.4933 35.8978C39.4933 35.898 39.4933 35.8982 39.4933 35.8983C39.4933 35.8985 39.4933 35.8987 39.4933 35.8989C39.4933 35.899 39.4933 35.8992 39.4933 35.8994C39.4933 35.8996 39.4933 35.8997 39.4933 35.8999C39.4933 35.9001 39.4933 35.9003 39.4933 35.9004C39.4933 35.9006 39.4933 35.9008 39.4933 35.901C39.4933 35.9011 39.4933 35.9013 39.4933 35.9015C39.4933 35.9017 39.4933 35.9018 39.4933 35.902C39.4933 35.9022 39.4933 35.9024 39.4933 35.9025C39.4933 35.9027 39.4933 35.9029 39.4933 35.9031C39.4933 35.9032 39.4933 35.9034 39.4933 35.9036C39.4933 35.9038 39.4933 35.9039 39.4933 35.9041C39.4933 35.9043 39.4933 35.9045 39.4933 35.9046C39.4933 35.9048 39.4933 35.905 39.4933 35.9052C39.4933 35.9053 39.4933 35.9055 39.4933 35.9057C39.4933 35.9059 39.4933 35.906 39.4933 35.9062C39.4933 35.9064 39.4933 35.9066 39.4933 35.9067C39.4933 35.9069 39.4933 35.9071 39.4933 35.9073C39.4933 35.9074 39.4933 35.9076 39.4933 35.9078C39.4933 35.908 39.4933 35.9081 39.4933 35.9083C39.4933 35.9085 39.4933 35.9087 39.4933 35.9088C39.4933 35.909 39.4933 35.9092 39.4933 35.9094C39.4933 35.9095 39.4933 35.9097 39.4933 35.9099C39.4933 35.9101 39.4933 35.9102 39.4933 35.9104C39.4933 35.9106 39.4933 35.9108 39.4933 35.9109C39.4933 35.9111 39.4933 35.9113 39.4933 35.9115C39.4933 35.9116 39.4933 35.9118 39.4933 35.912C39.4933 35.9122 39.4933 35.9123 39.4933 35.9125C39.4933 35.9127 39.4933 35.9129 39.4933 35.913C39.4933 35.9132 39.4933 35.9134 39.4933 35.9136C39.4933 35.9137 39.4933 35.9139 39.4933 35.9141C39.4933 35.9143 39.4933 35.9144 39.4933 35.9146C39.4933 35.9148 39.4933 35.915 39.4933 35.9151C39.4933 35.9153 39.4933 35.9155 39.4933 35.9157C39.4933 35.9158 39.4933 35.916 39.4933 35.9162C39.4933 35.9164 39.4933 35.9165 39.4933 35.9167C39.4933 35.9169 39.4933 35.9171 39.4933 35.9172C39.4933 35.9174 39.4933 35.9176 39.4933 35.9178C39.4933 35.9179 39.4933 35.9181 39.4933 35.9183C39.4933 35.9185 39.4933 35.9186 39.4933 35.9188C39.4933 35.919 39.4933 35.9192 39.4933 35.9193C39.4933 35.9195 39.4933 35.9197 39.4933 35.9199C39.4933 35.92 39.4933 35.9202 39.4933 35.9204C39.4933 35.9206 39.4933 35.9207 39.4933 35.9209C39.4933 35.9211 39.4933 35.9213 39.4933 35.9214C39.4933 35.9216 39.4933 35.9218 39.4933 35.922C39.4933 35.9221 39.4933 35.9223 39.4933 35.9225C39.4933 35.9227 39.4933 35.9228 39.4933 35.923C39.4933 35.9232 39.4933 35.9234 39.4933 35.9235C39.4933 35.9237 39.4933 35.9239 39.4933 35.9241C39.4933 35.9242 39.4933 35.9244 39.4933 35.9246C39.4933 35.9248 39.4933 35.9249 39.4933 35.9251C39.4933 35.9253 39.4933 35.9255 39.4933 35.9256C39.4933 35.9258 39.4933 35.926 39.4933 35.9262C39.4933 35.9263 39.4933 35.9265 39.4933 35.9267C39.4933 35.9269 39.4933 35.927 39.4933 35.9272C39.4933 35.9274 39.4933 35.9276 39.4933 35.9277C39.4933 35.9279 39.4933 35.9281 39.4933 35.9283C39.4933 35.9284 39.4933 35.9286 39.4933 35.9288C39.4933 35.929 39.4933 35.9291 39.4933 35.9293C39.4933 35.9295 39.4933 35.9297 39.4933 35.9298C39.4933 35.93 39.4933 35.9302 39.4933 35.9304C39.4933 35.9305 39.4933 35.9307 39.4933 35.9309C39.4933 35.9311 39.4933 35.9312 39.4933 35.9314C39.4933 35.9316 39.4933 35.9318 39.4933 35.9319C39.4933 35.9321 39.4933 35.9323 39.4933 35.9325C39.4933 35.9326 39.4933 35.9328 39.4933 35.933C39.4933 35.9332 39.4933 35.9333 39.4933 35.9335C39.4933 35.9337 39.4933 35.9339 39.4933 35.934C39.4933 35.9342 39.4933 35.9344 39.4933 35.9346C39.4933 35.9347 39.4933 35.9349 39.4933 35.9351C39.4933 35.9353 39.4933 35.9354 39.4933 35.9356C39.4933 35.9358 39.4933 35.936 39.4933 35.9361C39.4933 35.9363 39.4933 35.9365 39.4933 35.9367C39.4933 35.9368 39.4933 35.937 39.4933 35.9372C39.4933 35.9374 39.4933 35.9375 39.4933 35.9377C39.4933 35.9379 39.4933 35.9381 39.4933 35.9382C39.4933 35.9384 39.4933 35.9386 39.4933 35.9388C39.4933 35.9389 39.4933 35.9391 39.4933 35.9393C39.4933 35.9395 39.4933 35.9396 39.4933 35.9398C39.4933 35.94 39.4933 35.9402 39.4933 35.9403C39.4933 35.9405 39.4933 35.9407 39.4933 35.9409C39.4933 35.941 39.4933 35.9412 39.4933 35.9414C39.4933 35.9416 39.4933 35.9417 39.4933 35.9419C39.4933 35.9421 39.4933 35.9423 39.4933 35.9424C39.4933 35.9426 39.4933 35.9428 39.4933 35.943C39.4933 35.9431 39.4933 35.9433 39.4933 35.9435C39.4933 35.9437 39.4933 35.9438 39.4933 35.944C39.4933 35.9442 39.4933 35.9444 39.4933 35.9445C39.4933 35.9447 39.4933 35.9449 39.4933 35.9451C39.4933 35.9452 39.4933 35.9454 39.4933 35.9456C39.4933 35.9458 39.4933 35.9459 39.4933 35.9461C39.4933 35.9463 39.4933 35.9465 39.4933 35.9466C39.4933 35.9468 39.4933 35.947 39.4933 35.9472C39.4933 35.9473 39.4933 35.9475 39.4933 35.9477C39.4933 35.9479 39.4933 35.948 39.4933 35.9482C39.4933 35.9484 39.4933 35.9486 39.4933 35.9487C39.4933 35.9489 39.4933 35.9491 39.4933 35.9493C39.4933 35.9494 39.4933 35.9496 39.4933 35.9498C39.4933 35.95 39.4933 35.9501 39.4933 35.9503C39.4933 35.9505 39.4933 35.9507 39.4933 35.9508C39.4933 35.951 39.4933 35.9512 39.4933 35.9514C39.4933 35.9515 39.4933 35.9517 39.4933 35.9519C39.4933 35.9521 39.4933 35.9522 39.4933 35.9524C39.4933 35.9526 39.4933 35.9528 39.4933 35.9529C39.4933 35.9531 39.4933 35.9533 39.4933 35.9535C39.4933 35.9536 39.4933 35.9538 39.4933 35.954C39.4933 35.9542 39.4933 35.9543 39.4933 35.9545C39.4933 35.9547 39.4933 35.9549 39.4933 35.955C39.4933 35.9552 39.4933 35.9554 39.4933 35.9556C39.4933 35.9557 39.4933 35.9559 39.4933 35.9561C39.4933 35.9563 39.4933 35.9564 39.4933 35.9566C39.4933 35.9568 39.4933 35.957 39.4933 35.9571C39.4933 35.9573 39.4933 35.9575 39.4933 35.9577C39.4933 35.9578 39.4933 35.958 39.4933 35.9582C39.4933 35.9584 39.4933 35.9585 39.4933 35.9587C39.4933 35.9589 39.4933 35.9591 39.4933 35.9592C39.4933 35.9594 39.4933 35.9596 39.4933 35.9598C39.4933 35.9599 39.4933 35.9601 39.4933 35.9603C39.4933 35.9605 39.4933 35.9606 39.4933 35.9608C39.4933 35.961 39.4933 35.9612 39.4933 35.9613C39.4933 35.9615 39.4933 35.9617 39.4933 35.9619C39.4933 35.962 39.4933 35.9622 39.4933 35.9624C39.4933 35.9626 39.4933 35.9627 39.4933 35.9629C39.4933 35.9631 39.4933 35.9633 39.4933 35.9634C39.4933 35.9636 39.4933 35.9638 39.4933 35.964C39.4933 35.9641 39.4933 35.9643 39.4933 35.9645C39.4933 35.9647 39.4933 35.9648 39.4933 35.965C39.4933 35.9652 39.4933 35.9654 39.4933 35.9655C39.4933 35.9657 39.4933 35.9659 39.4933 35.9661C39.4933 35.9662 39.4933 35.9664 39.4933 35.9666C39.4933 35.9668 39.4933 35.9669 39.4933 35.9671C39.4933 35.9673 39.4933 35.9675 39.4933 35.9676C39.4933 35.9678 39.4933 35.968 39.4933 35.9682C39.4933 35.9683 39.4933 35.9685 39.4933 35.9687C39.4933 35.9689 39.4933 35.969 39.4933 35.9692C39.4933 35.9694 39.4933 35.9696 39.4933 35.9697C39.4933 35.9699 39.4933 35.9701 39.4933 35.9703C39.4933 35.9704 39.4933 35.9706 39.4933 35.9708C39.4933 35.971 39.4933 35.9711 39.4933 35.9713C39.4933 35.9715 39.4933 35.9717 39.4933 35.9718C39.4933 35.972 39.4933 35.9722 39.4933 35.9724C39.4933 35.9725 39.4933 35.9727 39.4933 35.9729C39.4933 35.9731 39.4933 35.9732 39.4933 35.9734C39.4933 35.9736 39.4933 35.9738 39.4933 35.9739C39.4933 35.9741 39.4933 35.9743 39.4933 35.9745C39.4933 35.9746 39.4933 35.9748 39.4933 35.975C39.4933 35.9752 39.4933 35.9753 39.4933 35.9755C39.4933 35.9757 39.4933 35.9759 39.4933 35.976C39.4933 35.9762 39.4933 35.9764 39.4933 35.9766C39.4933 35.9767 39.4933 35.9769 39.4933 35.9771C39.4933 35.9773 39.4933 35.9774 39.4933 35.9776C39.4933 35.9778 39.4933 35.978 39.4933 35.9781C39.4933 35.9783 39.4933 35.9785 39.4933 35.9787C39.4933 35.9788 39.4933 35.979 39.4933 35.9792C39.4933 35.9794 39.4933 35.9795 39.4933 35.9797C39.4933 35.9799 39.4933 35.9801 39.4933 35.9802C39.4933 35.9804 39.4933 35.9806 39.4933 35.9808C39.4933 35.9809 39.4933 35.9811 39.4933 35.9813C39.4933 35.9815 39.4933 35.9816 39.4933 35.9818C39.4933 35.982 39.4933 35.9822 39.4933 35.9823C39.4933 35.9825 39.4933 35.9827 39.4933 35.9829C39.4933 35.983 39.4933 35.9832 39.4933 35.9834C39.4933 35.9836 39.4933 35.9837 39.4933 35.9839C39.4933 35.9841 39.4933 35.9843 39.4933 35.9844C39.4933 35.9846 39.4933 35.9848 39.4933 35.985C39.4933 35.9851 39.4933 35.9853 39.4933 35.9855C39.4933 35.9857 39.4933 35.9858 39.4933 35.986C39.4933 35.9862 39.4933 35.9864 39.4933 35.9865C39.4933 35.9867 39.4933 35.9869 39.4933 35.9871C39.4933 35.9872 39.4933 35.9874 39.4933 35.9876C39.4933 35.9878 39.4933 35.9879 39.4933 35.9881C39.4933 35.9883 39.4933 35.9885 39.4933 35.9886C39.4933 35.9888 39.4933 35.989 39.4933 35.9892C39.4933 35.9893 39.4933 35.9895 39.4933 35.9897C39.4933 35.9899 39.4933 35.99 39.4933 35.9902C39.4933 35.9904 39.4933 35.9906 39.4933 35.9907C39.4933 35.9909 39.4933 35.9911 39.4933 35.9913C39.4933 35.9914 39.4933 35.9916 39.4933 35.9918C39.4933 35.992 39.4933 35.9921 39.4933 35.9923C39.4933 35.9925 39.4933 35.9927 39.4933 35.9928C39.4933 35.993 39.4933 35.9932 39.4933 35.9934C39.4933 35.9935 39.4933 35.9937 39.4933 35.9939C39.4933 35.9941 39.4933 35.9942 39.4933 35.9944C39.4933 35.9946 39.4933 35.9948 39.4933 35.9949C39.4933 35.9951 39.4933 35.9953 39.4933 35.9955C39.4933 35.9956 39.4933 35.9958 39.4933 35.996C39.4933 35.9962 39.4933 35.9963 39.4933 35.9965C39.4933 35.9967 39.4933 35.9969 39.4933 35.997C39.4933 35.9972 39.4933 35.9974 39.4933 35.9976C39.4933 35.9977 39.4933 35.9979 39.4933 35.9981C39.4933 35.9983 39.4933 35.9984 39.4933 35.9986C39.4933 35.9988 39.4933 35.999 39.4933 35.9991C39.4933 35.9993 39.4933 35.9995 39.4933 35.9997C39.4933 35.9998 39.4933 36 39.4933 36.0002C39.4933 36.0004 39.4933 36.0005 39.4933 36.0007C39.4933 36.0009 39.4933 36.0011 39.4933 36.0012C39.4933 36.0014 39.4933 36.0016 39.4933 36.0018C39.4933 36.0019 39.4933 36.0021 39.4933 36.0023C39.4933 36.0025 39.4933 36.0026 39.4933 36.0028C39.4933 36.003 39.4933 36.0032 39.4933 36.0033C39.4933 36.0035 39.4933 36.0037 39.4933 36.0039C39.4933 36.004 39.4933 36.0042 39.4933 36.0044C39.4933 36.0046 39.4933 36.0047 39.4933 36.0049C39.4933 36.0051 39.4933 36.0053 39.4933 36.0054C39.4933 36.0056 39.4933 36.0058 39.4933 36.006C39.4933 36.0061 39.4933 36.0063 39.4933 36.0065C39.4933 36.0067 39.4933 36.0068 39.4933 36.007C39.4933 36.0072 39.4933 36.0074 39.4933 36.0075C39.4933 36.0077 39.4933 36.0079 39.4933 36.0081C39.4933 36.0082 39.4933 36.0084 39.4933 36.0086C39.4933 36.0088 39.4933 36.0089 39.4933 36.0091C39.4933 36.0093 39.4933 36.0095 39.4933 36.0096C39.4933 36.0098 39.4933 36.01 39.4933 36.0102C39.4933 36.0103 39.4933 36.0105 39.4933 36.0107C39.4933 36.0109 39.4933 36.011 39.4933 36.0112C39.4933 36.0114 39.4933 36.0116 39.4933 36.0117C39.4933 36.0119 39.4933 36.0121 39.4933 36.0123C39.4933 36.0124 39.4933 36.0126 39.4933 36.0128C39.4933 36.013 39.4933 36.0131 39.4933 36.0133C39.4933 36.0135 39.4933 36.0137 39.4933 36.0138C39.4933 36.014 39.4933 36.0142 39.4933 36.0144C39.4933 36.0145 39.4933 36.0147 39.4933 36.0149C39.4933 36.0151 39.4933 36.0152 39.4933 36.0154C39.4933 36.0156 39.4933 36.0158 39.4933 36.0159C39.4933 36.0161 39.4933 36.0163 39.4933 36.0165C39.4933 36.0166 39.4933 36.0168 39.4933 36.017C39.4933 36.0172 39.4933 36.0173 39.4933 36.0175C39.4933 36.0177 39.4933 36.0179 39.4933 36.018C39.4933 36.0182 39.4933 36.0184 39.4933 36.0186C39.4933 36.0187 39.4933 36.0189 39.4933 36.0191C39.4933 36.0193 39.4933 36.0194 39.4933 36.0196C39.4933 36.0198 39.4933 36.02 39.4933 36.0201C39.4933 36.0203 39.4933 36.0205 39.4933 36.0207C39.4933 36.0208 39.4933 36.021 39.4933 36.0212C39.4933 36.0214 39.4933 36.0215 39.4933 36.0217C39.4933 36.0219 39.4933 36.022 39.4933 36.0222C39.4933 36.0224 39.4933 36.0226 39.4933 36.0227C39.4933 36.0229 39.4933 36.0231 39.4933 36.0233C39.4933 36.0234 39.4933 36.0236 39.4933 36.0238C39.4933 36.024 39.4933 36.0241 39.4933 36.0243C39.4933 36.0245 39.4933 36.0247 39.4933 36.0248C39.4933 36.025 39.4933 36.0252 39.4933 36.0254C39.4933 36.0255 39.4933 36.0257 39.4933 36.0259C39.4933 36.0261 39.4933 36.0262 39.4933 36.0264C39.4933 36.0266 39.4933 36.0268 39.4933 36.0269C39.4933 36.0271 39.4933 36.0273 39.4933 36.0275C39.4933 36.0276 39.4933 36.0278 39.4933 36.028C39.4933 36.0282 39.4933 36.0283 39.4933 36.0285C39.4933 36.0287 39.4933 36.0289 39.4933 36.029C39.4933 36.0292 39.4933 36.0294 39.4933 36.0296C39.4933 36.0297 39.4933 36.0299 39.4933 36.0301C39.4933 36.0303 39.4933 36.0304 39.4933 36.0306C39.4933 36.0308 39.4933 36.031 39.4933 36.0311C39.4933 36.0313 39.4933 36.0315 39.4933 36.0317C39.4933 36.0318 39.4933 36.032 39.4933 36.0322C39.4933 36.0324 39.4933 36.0325 39.4933 36.0327C39.4933 36.0329 39.4933 36.0331 39.4933 36.0332C39.4933 36.0334 39.4933 36.0336 39.4933 36.0338C39.4933 36.0339 39.4933 36.0341 39.4933 36.0343C39.4933 36.0345 39.4933 36.0346 39.4933 36.0348C39.4933 36.035 39.4933 36.0352 39.4933 36.0353C39.4933 36.0355 39.4933 36.0357 39.4933 36.0359C39.4933 36.036 39.4933 36.0362 39.4933 36.0364C39.4933 36.0366 39.4933 36.0367 39.4933 36.0369C39.4933 36.0371 39.4933 36.0373 39.4933 36.0374C39.4933 36.0376 39.4933 36.0378 39.4933 36.038C39.4933 36.0381 39.4933 36.0383 39.4933 36.0385C39.4933 36.0387 39.4933 36.0388 39.4933 36.039C39.4933 36.0392 39.4933 36.0394 39.4933 36.0395C39.4933 36.0397 39.4933 36.0399 39.4933 36.0401C39.4933 36.0402 39.4933 36.0404 39.4933 36.0406C39.4933 36.0408 39.4933 36.0409 39.4933 36.0411C39.4933 36.0413 39.4933 36.0415 39.4933 36.0416C39.4933 36.0418 39.4933 36.042 39.4933 36.0422C39.4933 36.0423 39.4933 36.0425 39.4933 36.0427C39.4933 36.0429 39.4933 36.043 39.4933 36.0432C39.4933 36.0434 39.4933 36.0436 39.4933 36.0437C39.4933 36.0439 39.4933 36.0441 39.4933 36.0443C39.4933 36.0444 39.4933 36.0446 39.4933 36.0448C39.4933 36.045 39.4933 36.0451 39.4933 36.0453C39.4933 36.0455 39.4933 36.0457 39.4933 36.0458C39.4933 36.046 39.4933 36.0462 39.4933 36.0464C39.4933 36.0465 39.4933 36.0467 39.4933 36.0469C39.4933 36.0471 39.4933 36.0472 39.4933 36.0474C39.4933 36.0476 39.4933 36.0478 39.4933 36.0479C39.4933 36.0481 39.4933 36.0483 39.4933 36.0485C39.4933 36.0486 39.4933 36.0488 39.4933 36.049C39.4933 36.0492 39.4933 36.0493 39.4933 36.0495C39.4933 36.0497 39.4933 36.0499 39.4933 36.05C39.4933 36.0502 39.4933 36.0504 39.4933 36.0506C39.4933 36.0507 39.4933 36.0509 39.4933 36.0511C39.4933 36.0513 39.4933 36.0514 39.4933 36.0516C39.4933 36.0518 39.4933 36.052 39.4933 36.0521C39.4933 36.0523 39.4933 36.0525 39.4933 36.0527C39.4933 36.0528 39.4933 36.053 39.4933 36.0532C39.4933 36.0534 39.4933 36.0535 39.4933 36.0537H40.4933C40.4933 36.0535 40.4933 36.0534 40.4933 36.0532C40.4933 36.053 40.4933 36.0528 40.4933 36.0527C40.4933 36.0525 40.4933 36.0523 40.4933 36.0521C40.4933 36.052 40.4933 36.0518 40.4933 36.0516C40.4933 36.0514 40.4933 36.0513 40.4933 36.0511C40.4933 36.0509 40.4933 36.0507 40.4933 36.0506C40.4933 36.0504 40.4933 36.0502 40.4933 36.05C40.4933 36.0499 40.4933 36.0497 40.4933 36.0495C40.4933 36.0493 40.4933 36.0492 40.4933 36.049C40.4933 36.0488 40.4933 36.0486 40.4933 36.0485C40.4933 36.0483 40.4933 36.0481 40.4933 36.0479C40.4933 36.0478 40.4933 36.0476 40.4933 36.0474C40.4933 36.0472 40.4933 36.0471 40.4933 36.0469C40.4933 36.0467 40.4933 36.0465 40.4933 36.0464C40.4933 36.0462 40.4933 36.046 40.4933 36.0458C40.4933 36.0457 40.4933 36.0455 40.4933 36.0453C40.4933 36.0451 40.4933 36.045 40.4933 36.0448C40.4933 36.0446 40.4933 36.0444 40.4933 36.0443C40.4933 36.0441 40.4933 36.0439 40.4933 36.0437C40.4933 36.0436 40.4933 36.0434 40.4933 36.0432C40.4933 36.043 40.4933 36.0429 40.4933 36.0427C40.4933 36.0425 40.4933 36.0423 40.4933 36.0422C40.4933 36.042 40.4933 36.0418 40.4933 36.0416C40.4933 36.0415 40.4933 36.0413 40.4933 36.0411C40.4933 36.0409 40.4933 36.0408 40.4933 36.0406C40.4933 36.0404 40.4933 36.0402 40.4933 36.0401C40.4933 36.0399 40.4933 36.0397 40.4933 36.0395C40.4933 36.0394 40.4933 36.0392 40.4933 36.039C40.4933 36.0388 40.4933 36.0387 40.4933 36.0385C40.4933 36.0383 40.4933 36.0381 40.4933 36.038C40.4933 36.0378 40.4933 36.0376 40.4933 36.0374C40.4933 36.0373 40.4933 36.0371 40.4933 36.0369C40.4933 36.0367 40.4933 36.0366 40.4933 36.0364C40.4933 36.0362 40.4933 36.036 40.4933 36.0359C40.4933 36.0357 40.4933 36.0355 40.4933 36.0353C40.4933 36.0352 40.4933 36.035 40.4933 36.0348C40.4933 36.0346 40.4933 36.0345 40.4933 36.0343C40.4933 36.0341 40.4933 36.0339 40.4933 36.0338C40.4933 36.0336 40.4933 36.0334 40.4933 36.0332C40.4933 36.0331 40.4933 36.0329 40.4933 36.0327C40.4933 36.0325 40.4933 36.0324 40.4933 36.0322C40.4933 36.032 40.4933 36.0318 40.4933 36.0317C40.4933 36.0315 40.4933 36.0313 40.4933 36.0311C40.4933 36.031 40.4933 36.0308 40.4933 36.0306C40.4933 36.0304 40.4933 36.0303 40.4933 36.0301C40.4933 36.0299 40.4933 36.0297 40.4933 36.0296C40.4933 36.0294 40.4933 36.0292 40.4933 36.029C40.4933 36.0289 40.4933 36.0287 40.4933 36.0285C40.4933 36.0283 40.4933 36.0282 40.4933 36.028C40.4933 36.0278 40.4933 36.0276 40.4933 36.0275C40.4933 36.0273 40.4933 36.0271 40.4933 36.0269C40.4933 36.0268 40.4933 36.0266 40.4933 36.0264C40.4933 36.0262 40.4933 36.0261 40.4933 36.0259C40.4933 36.0257 40.4933 36.0255 40.4933 36.0254C40.4933 36.0252 40.4933 36.025 40.4933 36.0248C40.4933 36.0247 40.4933 36.0245 40.4933 36.0243C40.4933 36.0241 40.4933 36.024 40.4933 36.0238C40.4933 36.0236 40.4933 36.0234 40.4933 36.0233C40.4933 36.0231 40.4933 36.0229 40.4933 36.0227C40.4933 36.0226 40.4933 36.0224 40.4933 36.0222C40.4933 36.022 40.4933 36.0219 40.4933 36.0217C40.4933 36.0215 40.4933 36.0214 40.4933 36.0212C40.4933 36.021 40.4933 36.0208 40.4933 36.0207C40.4933 36.0205 40.4933 36.0203 40.4933 36.0201C40.4933 36.02 40.4933 36.0198 40.4933 36.0196C40.4933 36.0194 40.4933 36.0193 40.4933 36.0191C40.4933 36.0189 40.4933 36.0187 40.4933 36.0186C40.4933 36.0184 40.4933 36.0182 40.4933 36.018C40.4933 36.0179 40.4933 36.0177 40.4933 36.0175C40.4933 36.0173 40.4933 36.0172 40.4933 36.017C40.4933 36.0168 40.4933 36.0166 40.4933 36.0165C40.4933 36.0163 40.4933 36.0161 40.4933 36.0159C40.4933 36.0158 40.4933 36.0156 40.4933 36.0154C40.4933 36.0152 40.4933 36.0151 40.4933 36.0149C40.4933 36.0147 40.4933 36.0145 40.4933 36.0144C40.4933 36.0142 40.4933 36.014 40.4933 36.0138C40.4933 36.0137 40.4933 36.0135 40.4933 36.0133C40.4933 36.0131 40.4933 36.013 40.4933 36.0128C40.4933 36.0126 40.4933 36.0124 40.4933 36.0123C40.4933 36.0121 40.4933 36.0119 40.4933 36.0117C40.4933 36.0116 40.4933 36.0114 40.4933 36.0112C40.4933 36.011 40.4933 36.0109 40.4933 36.0107C40.4933 36.0105 40.4933 36.0103 40.4933 36.0102C40.4933 36.01 40.4933 36.0098 40.4933 36.0096C40.4933 36.0095 40.4933 36.0093 40.4933 36.0091C40.4933 36.0089 40.4933 36.0088 40.4933 36.0086C40.4933 36.0084 40.4933 36.0082 40.4933 36.0081C40.4933 36.0079 40.4933 36.0077 40.4933 36.0075C40.4933 36.0074 40.4933 36.0072 40.4933 36.007C40.4933 36.0068 40.4933 36.0067 40.4933 36.0065C40.4933 36.0063 40.4933 36.0061 40.4933 36.006C40.4933 36.0058 40.4933 36.0056 40.4933 36.0054C40.4933 36.0053 40.4933 36.0051 40.4933 36.0049C40.4933 36.0047 40.4933 36.0046 40.4933 36.0044C40.4933 36.0042 40.4933 36.004 40.4933 36.0039C40.4933 36.0037 40.4933 36.0035 40.4933 36.0033C40.4933 36.0032 40.4933 36.003 40.4933 36.0028C40.4933 36.0026 40.4933 36.0025 40.4933 36.0023C40.4933 36.0021 40.4933 36.0019 40.4933 36.0018C40.4933 36.0016 40.4933 36.0014 40.4933 36.0012C40.4933 36.0011 40.4933 36.0009 40.4933 36.0007C40.4933 36.0005 40.4933 36.0004 40.4933 36.0002C40.4933 36 40.4933 35.9998 40.4933 35.9997C40.4933 35.9995 40.4933 35.9993 40.4933 35.9991C40.4933 35.999 40.4933 35.9988 40.4933 35.9986C40.4933 35.9984 40.4933 35.9983 40.4933 35.9981C40.4933 35.9979 40.4933 35.9977 40.4933 35.9976C40.4933 35.9974 40.4933 35.9972 40.4933 35.997C40.4933 35.9969 40.4933 35.9967 40.4933 35.9965C40.4933 35.9963 40.4933 35.9962 40.4933 35.996C40.4933 35.9958 40.4933 35.9956 40.4933 35.9955C40.4933 35.9953 40.4933 35.9951 40.4933 35.9949C40.4933 35.9948 40.4933 35.9946 40.4933 35.9944C40.4933 35.9942 40.4933 35.9941 40.4933 35.9939C40.4933 35.9937 40.4933 35.9935 40.4933 35.9934C40.4933 35.9932 40.4933 35.993 40.4933 35.9928C40.4933 35.9927 40.4933 35.9925 40.4933 35.9923C40.4933 35.9921 40.4933 35.992 40.4933 35.9918C40.4933 35.9916 40.4933 35.9914 40.4933 35.9913C40.4933 35.9911 40.4933 35.9909 40.4933 35.9907C40.4933 35.9906 40.4933 35.9904 40.4933 35.9902C40.4933 35.99 40.4933 35.9899 40.4933 35.9897C40.4933 35.9895 40.4933 35.9893 40.4933 35.9892C40.4933 35.989 40.4933 35.9888 40.4933 35.9886C40.4933 35.9885 40.4933 35.9883 40.4933 35.9881C40.4933 35.9879 40.4933 35.9878 40.4933 35.9876C40.4933 35.9874 40.4933 35.9872 40.4933 35.9871C40.4933 35.9869 40.4933 35.9867 40.4933 35.9865C40.4933 35.9864 40.4933 35.9862 40.4933 35.986C40.4933 35.9858 40.4933 35.9857 40.4933 35.9855C40.4933 35.9853 40.4933 35.9851 40.4933 35.985C40.4933 35.9848 40.4933 35.9846 40.4933 35.9844C40.4933 35.9843 40.4933 35.9841 40.4933 35.9839C40.4933 35.9837 40.4933 35.9836 40.4933 35.9834C40.4933 35.9832 40.4933 35.983 40.4933 35.9829C40.4933 35.9827 40.4933 35.9825 40.4933 35.9823C40.4933 35.9822 40.4933 35.982 40.4933 35.9818C40.4933 35.9816 40.4933 35.9815 40.4933 35.9813C40.4933 35.9811 40.4933 35.9809 40.4933 35.9808C40.4933 35.9806 40.4933 35.9804 40.4933 35.9802C40.4933 35.9801 40.4933 35.9799 40.4933 35.9797C40.4933 35.9795 40.4933 35.9794 40.4933 35.9792C40.4933 35.979 40.4933 35.9788 40.4933 35.9787C40.4933 35.9785 40.4933 35.9783 40.4933 35.9781C40.4933 35.978 40.4933 35.9778 40.4933 35.9776C40.4933 35.9774 40.4933 35.9773 40.4933 35.9771C40.4933 35.9769 40.4933 35.9767 40.4933 35.9766C40.4933 35.9764 40.4933 35.9762 40.4933 35.976C40.4933 35.9759 40.4933 35.9757 40.4933 35.9755C40.4933 35.9753 40.4933 35.9752 40.4933 35.975C40.4933 35.9748 40.4933 35.9746 40.4933 35.9745C40.4933 35.9743 40.4933 35.9741 40.4933 35.9739C40.4933 35.9738 40.4933 35.9736 40.4933 35.9734C40.4933 35.9732 40.4933 35.9731 40.4933 35.9729C40.4933 35.9727 40.4933 35.9725 40.4933 35.9724C40.4933 35.9722 40.4933 35.972 40.4933 35.9718C40.4933 35.9717 40.4933 35.9715 40.4933 35.9713C40.4933 35.9711 40.4933 35.971 40.4933 35.9708C40.4933 35.9706 40.4933 35.9704 40.4933 35.9703C40.4933 35.9701 40.4933 35.9699 40.4933 35.9697C40.4933 35.9696 40.4933 35.9694 40.4933 35.9692C40.4933 35.969 40.4933 35.9689 40.4933 35.9687C40.4933 35.9685 40.4933 35.9683 40.4933 35.9682C40.4933 35.968 40.4933 35.9678 40.4933 35.9676C40.4933 35.9675 40.4933 35.9673 40.4933 35.9671C40.4933 35.9669 40.4933 35.9668 40.4933 35.9666C40.4933 35.9664 40.4933 35.9662 40.4933 35.9661C40.4933 35.9659 40.4933 35.9657 40.4933 35.9655C40.4933 35.9654 40.4933 35.9652 40.4933 35.965C40.4933 35.9648 40.4933 35.9647 40.4933 35.9645C40.4933 35.9643 40.4933 35.9641 40.4933 35.964C40.4933 35.9638 40.4933 35.9636 40.4933 35.9634C40.4933 35.9633 40.4933 35.9631 40.4933 35.9629C40.4933 35.9627 40.4933 35.9626 40.4933 35.9624C40.4933 35.9622 40.4933 35.962 40.4933 35.9619C40.4933 35.9617 40.4933 35.9615 40.4933 35.9613C40.4933 35.9612 40.4933 35.961 40.4933 35.9608C40.4933 35.9606 40.4933 35.9605 40.4933 35.9603C40.4933 35.9601 40.4933 35.9599 40.4933 35.9598C40.4933 35.9596 40.4933 35.9594 40.4933 35.9592C40.4933 35.9591 40.4933 35.9589 40.4933 35.9587C40.4933 35.9585 40.4933 35.9584 40.4933 35.9582C40.4933 35.958 40.4933 35.9578 40.4933 35.9577C40.4933 35.9575 40.4933 35.9573 40.4933 35.9571C40.4933 35.957 40.4933 35.9568 40.4933 35.9566C40.4933 35.9564 40.4933 35.9563 40.4933 35.9561C40.4933 35.9559 40.4933 35.9557 40.4933 35.9556C40.4933 35.9554 40.4933 35.9552 40.4933 35.955C40.4933 35.9549 40.4933 35.9547 40.4933 35.9545C40.4933 35.9543 40.4933 35.9542 40.4933 35.954C40.4933 35.9538 40.4933 35.9536 40.4933 35.9535C40.4933 35.9533 40.4933 35.9531 40.4933 35.9529C40.4933 35.9528 40.4933 35.9526 40.4933 35.9524C40.4933 35.9522 40.4933 35.9521 40.4933 35.9519C40.4933 35.9517 40.4933 35.9515 40.4933 35.9514C40.4933 35.9512 40.4933 35.951 40.4933 35.9508C40.4933 35.9507 40.4933 35.9505 40.4933 35.9503C40.4933 35.9501 40.4933 35.95 40.4933 35.9498C40.4933 35.9496 40.4933 35.9494 40.4933 35.9493C40.4933 35.9491 40.4933 35.9489 40.4933 35.9487C40.4933 35.9486 40.4933 35.9484 40.4933 35.9482C40.4933 35.948 40.4933 35.9479 40.4933 35.9477C40.4933 35.9475 40.4933 35.9473 40.4933 35.9472C40.4933 35.947 40.4933 35.9468 40.4933 35.9466C40.4933 35.9465 40.4933 35.9463 40.4933 35.9461C40.4933 35.9459 40.4933 35.9458 40.4933 35.9456C40.4933 35.9454 40.4933 35.9452 40.4933 35.9451C40.4933 35.9449 40.4933 35.9447 40.4933 35.9445C40.4933 35.9444 40.4933 35.9442 40.4933 35.944C40.4933 35.9438 40.4933 35.9437 40.4933 35.9435C40.4933 35.9433 40.4933 35.9431 40.4933 35.943C40.4933 35.9428 40.4933 35.9426 40.4933 35.9424C40.4933 35.9423 40.4933 35.9421 40.4933 35.9419C40.4933 35.9417 40.4933 35.9416 40.4933 35.9414C40.4933 35.9412 40.4933 35.941 40.4933 35.9409C40.4933 35.9407 40.4933 35.9405 40.4933 35.9403C40.4933 35.9402 40.4933 35.94 40.4933 35.9398C40.4933 35.9396 40.4933 35.9395 40.4933 35.9393C40.4933 35.9391 40.4933 35.9389 40.4933 35.9388C40.4933 35.9386 40.4933 35.9384 40.4933 35.9382C40.4933 35.9381 40.4933 35.9379 40.4933 35.9377C40.4933 35.9375 40.4933 35.9374 40.4933 35.9372C40.4933 35.937 40.4933 35.9368 40.4933 35.9367C40.4933 35.9365 40.4933 35.9363 40.4933 35.9361C40.4933 35.936 40.4933 35.9358 40.4933 35.9356C40.4933 35.9354 40.4933 35.9353 40.4933 35.9351C40.4933 35.9349 40.4933 35.9347 40.4933 35.9346C40.4933 35.9344 40.4933 35.9342 40.4933 35.934C40.4933 35.9339 40.4933 35.9337 40.4933 35.9335C40.4933 35.9333 40.4933 35.9332 40.4933 35.933C40.4933 35.9328 40.4933 35.9326 40.4933 35.9325C40.4933 35.9323 40.4933 35.9321 40.4933 35.9319C40.4933 35.9318 40.4933 35.9316 40.4933 35.9314C40.4933 35.9312 40.4933 35.9311 40.4933 35.9309C40.4933 35.9307 40.4933 35.9305 40.4933 35.9304C40.4933 35.9302 40.4933 35.93 40.4933 35.9298C40.4933 35.9297 40.4933 35.9295 40.4933 35.9293C40.4933 35.9291 40.4933 35.929 40.4933 35.9288C40.4933 35.9286 40.4933 35.9284 40.4933 35.9283C40.4933 35.9281 40.4933 35.9279 40.4933 35.9277C40.4933 35.9276 40.4933 35.9274 40.4933 35.9272C40.4933 35.927 40.4933 35.9269 40.4933 35.9267C40.4933 35.9265 40.4933 35.9263 40.4933 35.9262C40.4933 35.926 40.4933 35.9258 40.4933 35.9256C40.4933 35.9255 40.4933 35.9253 40.4933 35.9251C40.4933 35.9249 40.4933 35.9248 40.4933 35.9246C40.4933 35.9244 40.4933 35.9242 40.4933 35.9241C40.4933 35.9239 40.4933 35.9237 40.4933 35.9235C40.4933 35.9234 40.4933 35.9232 40.4933 35.923C40.4933 35.9228 40.4933 35.9227 40.4933 35.9225C40.4933 35.9223 40.4933 35.9221 40.4933 35.922C40.4933 35.9218 40.4933 35.9216 40.4933 35.9214C40.4933 35.9213 40.4933 35.9211 40.4933 35.9209C40.4933 35.9207 40.4933 35.9206 40.4933 35.9204C40.4933 35.9202 40.4933 35.92 40.4933 35.9199C40.4933 35.9197 40.4933 35.9195 40.4933 35.9193C40.4933 35.9192 40.4933 35.919 40.4933 35.9188C40.4933 35.9186 40.4933 35.9185 40.4933 35.9183C40.4933 35.9181 40.4933 35.9179 40.4933 35.9178C40.4933 35.9176 40.4933 35.9174 40.4933 35.9172C40.4933 35.9171 40.4933 35.9169 40.4933 35.9167C40.4933 35.9165 40.4933 35.9164 40.4933 35.9162C40.4933 35.916 40.4933 35.9158 40.4933 35.9157C40.4933 35.9155 40.4933 35.9153 40.4933 35.9151C40.4933 35.915 40.4933 35.9148 40.4933 35.9146C40.4933 35.9144 40.4933 35.9143 40.4933 35.9141C40.4933 35.9139 40.4933 35.9137 40.4933 35.9136C40.4933 35.9134 40.4933 35.9132 40.4933 35.913C40.4933 35.9129 40.4933 35.9127 40.4933 35.9125C40.4933 35.9123 40.4933 35.9122 40.4933 35.912C40.4933 35.9118 40.4933 35.9116 40.4933 35.9115C40.4933 35.9113 40.4933 35.9111 40.4933 35.9109C40.4933 35.9108 40.4933 35.9106 40.4933 35.9104C40.4933 35.9102 40.4933 35.9101 40.4933 35.9099C40.4933 35.9097 40.4933 35.9095 40.4933 35.9094C40.4933 35.9092 40.4933 35.909 40.4933 35.9088C40.4933 35.9087 40.4933 35.9085 40.4933 35.9083C40.4933 35.9081 40.4933 35.908 40.4933 35.9078C40.4933 35.9076 40.4933 35.9074 40.4933 35.9073C40.4933 35.9071 40.4933 35.9069 40.4933 35.9067C40.4933 35.9066 40.4933 35.9064 40.4933 35.9062C40.4933 35.906 40.4933 35.9059 40.4933 35.9057C40.4933 35.9055 40.4933 35.9053 40.4933 35.9052C40.4933 35.905 40.4933 35.9048 40.4933 35.9046C40.4933 35.9045 40.4933 35.9043 40.4933 35.9041C40.4933 35.9039 40.4933 35.9038 40.4933 35.9036C40.4933 35.9034 40.4933 35.9032 40.4933 35.9031C40.4933 35.9029 40.4933 35.9027 40.4933 35.9025C40.4933 35.9024 40.4933 35.9022 40.4933 35.902C40.4933 35.9018 40.4933 35.9017 40.4933 35.9015C40.4933 35.9013 40.4933 35.9011 40.4933 35.901C40.4933 35.9008 40.4933 35.9006 40.4933 35.9004C40.4933 35.9003 40.4933 35.9001 40.4933 35.8999C40.4933 35.8997 40.4933 35.8996 40.4933 35.8994C40.4933 35.8992 40.4933 35.899 40.4933 35.8989C40.4933 35.8987 40.4933 35.8985 40.4933 35.8983C40.4933 35.8982 40.4933 35.898 40.4933 35.8978C40.4933 35.8976 40.4933 35.8975 40.4933 35.8973C40.4933 35.8971 40.4933 35.8969 40.4933 35.8968C40.4933 35.8966 40.4933 35.8964 40.4933 35.8962C40.4933 35.8961 40.4933 35.8959 40.4933 35.8957C40.4933 35.8955 40.4933 35.8954 40.4933 35.8952C40.4933 35.895 40.4933 35.8948 40.4933 35.8947C40.4933 35.8945 40.4933 35.8943 40.4933 35.8941C40.4933 35.894 40.4933 35.8938 40.4933 35.8936C40.4933 35.8934 40.4933 35.8933 40.4933 35.8931C40.4933 35.8929 40.4933 35.8927 40.4933 35.8926C40.4933 35.8924 40.4933 35.8922 40.4933 35.892C40.4933 35.8919 40.4933 35.8917 40.4933 35.8915C40.4933 35.8913 40.4933 35.8912 40.4933 35.891C40.4933 35.8908 40.4933 35.8906 40.4933 35.8905C40.4933 35.8903 40.4933 35.8901 40.4933 35.8899C40.4933 35.8898 40.4933 35.8896 40.4933 35.8894C40.4933 35.8892 40.4933 35.8891 40.4933 35.8889C40.4933 35.8887 40.4933 35.8885 40.4933 35.8884C40.4933 35.8882 40.4933 35.888 40.4933 35.8878C40.4933 35.8877 40.4933 35.8875 40.4933 35.8873C40.4933 35.8871 40.4933 35.887 40.4933 35.8868C40.4933 35.8866 40.4933 35.8864 40.4933 35.8863C40.4933 35.8861 40.4933 35.8859 40.4933 35.8857C40.4933 35.8856 40.4933 35.8854 40.4933 35.8852C40.4933 35.885 40.4933 35.8849 40.4933 35.8847C40.4933 35.8845 40.4933 35.8843 40.4933 35.8842C40.4933 35.884 40.4933 35.8838 40.4933 35.8836C40.4933 35.8835 40.4933 35.8833 40.4933 35.8831C40.4933 35.8829 40.4933 35.8828 40.4933 35.8826C40.4933 35.8824 40.4933 35.8822 40.4933 35.8821C40.4933 35.8819 40.4933 35.8817 40.4933 35.8815C40.4933 35.8814 40.4933 35.8812 40.4933 35.881C40.4933 35.8808 40.4933 35.8807 40.4933 35.8805C40.4933 35.8803 40.4933 35.8801 40.4933 35.88C40.4933 35.8798 40.4933 35.8796 40.4933 35.8794C40.4933 35.8793 40.4933 35.8791 40.4933 35.8789C40.4933 35.8787 40.4933 35.8786 40.4933 35.8784C40.4933 35.8782 40.4933 35.878 40.4933 35.8779C40.4933 35.8777 40.4933 35.8775 40.4933 35.8773C40.4933 35.8772 40.4933 35.877 40.4933 35.8768C40.4933 35.8766 40.4933 35.8765 40.4933 35.8763C40.4933 35.8761 40.4933 35.8759 40.4933 35.8758C40.4933 35.8756 40.4933 35.8754 40.4933 35.8752C40.4933 35.8751 40.4933 35.8749 40.4933 35.8747C40.4933 35.8745 40.4933 35.8744 40.4933 35.8742C40.4933 35.874 40.4933 35.8738 40.4933 35.8737C40.4933 35.8735 40.4933 35.8733 40.4933 35.8731C40.4933 35.873 40.4933 35.8728 40.4933 35.8726C40.4933 35.8724 40.4933 35.8723 40.4933 35.8721C40.4933 35.8719 40.4933 35.8717 40.4933 35.8716C40.4933 35.8714 40.4933 35.8712 40.4933 35.871C40.4933 35.8709 40.4933 35.8707 40.4933 35.8705C40.4933 35.8703 40.4933 35.8702 40.4933 35.87C40.4933 35.8698 40.4933 35.8696 40.4933 35.8695C40.4933 35.8693 40.4933 35.8691 40.4933 35.8689C40.4933 35.8688 40.4933 35.8686 40.4933 35.8684C40.4933 35.8682 40.4933 35.8681 40.4933 35.8679C40.4933 35.8677 40.4933 35.8675 40.4933 35.8674C40.4933 35.8672 40.4933 35.867 40.4933 35.8668C40.4933 35.8667 40.4933 35.8665 40.4933 35.8663C40.4933 35.8661 40.4933 35.866 40.4933 35.8658C40.4933 35.8656 40.4933 35.8654 40.4933 35.8653C40.4933 35.8651 40.4933 35.8649 40.4933 35.8647C40.4933 35.8646 40.4933 35.8644 40.4933 35.8642C40.4933 35.864 40.4933 35.8639 40.4933 35.8637C40.4933 35.8635 40.4933 35.8633 40.4933 35.8632C40.4933 35.863 40.4933 35.8628 40.4933 35.8627C40.4933 35.8625 40.4933 35.8623 40.4933 35.8621C40.4933 35.862 40.4933 35.8618 40.4933 35.8616C40.4933 35.8614 40.4933 35.8613 40.4933 35.8611C40.4933 35.8609 40.4933 35.8607 40.4933 35.8606C40.4933 35.8604 40.4933 35.8602 40.4933 35.86C40.4933 35.8599 40.4933 35.8597 40.4933 35.8595C40.4933 35.8593 40.4933 35.8592 40.4933 35.859C40.4933 35.8588 40.4933 35.8586 40.4933 35.8585C40.4933 35.8583 40.4933 35.8581 40.4933 35.8579C40.4933 35.8578 40.4933 35.8576 40.4933 35.8574C40.4933 35.8572 40.4933 35.8571 40.4933 35.8569C40.4933 35.8567 40.4933 35.8565 40.4933 35.8564C40.4933 35.8562 40.4933 35.856 40.4933 35.8558C40.4933 35.8557 40.4933 35.8555 40.4933 35.8553C40.4933 35.8551 40.4933 35.855 40.4933 35.8548C40.4933 35.8546 40.4933 35.8544 40.4933 35.8543C40.4933 35.8541 40.4933 35.8539 40.4933 35.8537C40.4933 35.8536 40.4933 35.8534 40.4933 35.8532C40.4933 35.853 40.4933 35.8529 40.4933 35.8527C40.4933 35.8525 40.4933 35.8523 40.4933 35.8522C40.4933 35.852 40.4933 35.8518 40.4933 35.8516C40.4933 35.8515 40.4933 35.8513 40.4933 35.8511C40.4933 35.8509 40.4933 35.8508 40.4933 35.8506C40.4933 35.8504 40.4933 35.8502 40.4933 35.8501C40.4933 35.8499 40.4933 35.8497 40.4933 35.8495C40.4933 35.8494 40.4933 35.8492 40.4933 35.849C40.4933 35.8488 40.4933 35.8487 40.4933 35.8485C40.4933 35.8483 40.4933 35.8481 40.4933 35.848C40.4933 35.8478 40.4933 35.8476 40.4933 35.8474C40.4933 35.8473 40.4933 35.8471 40.4933 35.8469C40.4933 35.8467 40.4933 35.8466 40.4933 35.8464C40.4933 35.8462 40.4933 35.846 40.4933 35.8459C40.4933 35.8457 40.4933 35.8455 40.4933 35.8453C40.4933 35.8452 40.4933 35.845 40.4933 35.8448C40.4933 35.8446 40.4933 35.8445 40.4933 35.8443C40.4933 35.8441 40.4933 35.8439 40.4933 35.8438C40.4933 35.8436 40.4933 35.8434 40.4933 35.8432C40.4933 35.8431 40.4933 35.8429 40.4933 35.8427C40.4933 35.8425 40.4933 35.8424 40.4933 35.8422C40.4933 35.842 40.4933 35.8418 40.4933 35.8417C40.4933 35.8415 40.4933 35.8413 40.4933 35.8411C40.4933 35.841 40.4933 35.8408 40.4933 35.8406C40.4933 35.8404 40.4933 35.8403 40.4933 35.8401C40.4933 35.8399 40.4933 35.8397 40.4933 35.8396C40.4933 35.8394 40.4933 35.8392 40.4933 35.839C40.4933 35.8389 40.4933 35.8387 40.4933 35.8385C40.4933 35.8383 40.4933 35.8382 40.4933 35.838C40.4933 35.8378 40.4933 35.8376 40.4933 35.8375C40.4933 35.8373 40.4933 35.8371 40.4933 35.8369C40.4933 35.8368 40.4933 35.8366 40.4933 35.8364C40.4933 35.8362 40.4933 35.8361 40.4933 35.8359C40.4933 35.8357 40.4933 35.8355 40.4933 35.8354C40.4933 35.8352 40.4933 35.835 40.4933 35.8348C40.4933 35.8347 40.4933 35.8345 40.4933 35.8343C40.4933 35.8341 40.4933 35.834 40.4933 35.8338C40.4933 35.8336 40.4933 35.8334 40.4933 35.8333C40.4933 35.8331 40.4933 35.8329 40.4933 35.8327C40.4933 35.8326 40.4933 35.8324 40.4933 35.8322C40.4933 35.832 40.4933 35.8319 40.4933 35.8317C40.4933 35.8315 40.4933 35.8313 40.4933 35.8312C40.4933 35.831 40.4933 35.8308 40.4933 35.8306C40.4933 35.8305 40.4933 35.8303 40.4933 35.8301C40.4933 35.8299 40.4933 35.8298 40.4933 35.8296C40.4933 35.8294 40.4933 35.8292 40.4933 35.8291C40.4933 35.8289 40.4933 35.8287 40.4933 35.8285C40.4933 35.8284 40.4933 35.8282 40.4933 35.828C40.4933 35.8278 40.4933 35.8277 40.4933 35.8275C40.4933 35.8273 40.4933 35.8271 40.4933 35.827C40.4933 35.8268 40.4933 35.8266 40.4933 35.8264C40.4933 35.8263 40.4933 35.8261 40.4933 35.8259C40.4933 35.8257 40.4933 35.8256 40.4933 35.8254C40.4933 35.8252 40.4933 35.825 40.4933 35.8249C40.4933 35.8247 40.4933 35.8245 40.4933 35.8243C40.4933 35.8242 40.4933 35.824 40.4933 35.8238C40.4933 35.8236 40.4933 35.8235 40.4933 35.8233C40.4933 35.8231 40.4933 35.8229 40.4933 35.8228C40.4933 35.8226 40.4933 35.8224 40.4933 35.8222C40.4933 35.8221 40.4933 35.8219 40.4933 35.8217C40.4933 35.8215 40.4933 35.8214 40.4933 35.8212C40.4933 35.821 40.4933 35.8208 40.4933 35.8207C40.4933 35.8205 40.4933 35.8203 40.4933 35.8201C40.4933 35.82 40.4933 35.8198 40.4933 35.8196C40.4933 35.8194 40.4933 35.8193 40.4933 35.8191C40.4933 35.8189 40.4933 35.8187 40.4933 35.8186C40.4933 35.8184 40.4933 35.8182 40.4933 35.818C40.4933 35.8179 40.4933 35.8177 40.4933 35.8175C40.4933 35.8173 40.4933 35.8172 40.4933 35.817C40.4933 35.8168 40.4933 35.8166 40.4933 35.8165C40.4933 35.8163 40.4933 35.8161 40.4933 35.8159C40.4933 35.8158 40.4933 35.8156 40.4933 35.8154C40.4933 35.8152 40.4933 35.8151 40.4933 35.8149C40.4933 35.8147 40.4933 35.8145 40.4933 35.8144C40.4933 35.8142 40.4933 35.814 40.4933 35.8138C40.4933 35.8137 40.4933 35.8135 40.4933 35.8133C40.4933 35.8131 40.4933 35.813 40.4933 35.8128C40.4933 35.8126 40.4933 35.8124 40.4933 35.8123C40.4933 35.8121 40.4933 35.8119 40.4933 35.8117C40.4933 35.8116 40.4933 35.8114 40.4933 35.8112C40.4933 35.811 40.4933 35.8109 40.4933 35.8107C40.4933 35.8105 40.4933 35.8103 40.4933 35.8102C40.4933 35.81 40.4933 35.8098 40.4933 35.8096C40.4933 35.8095 40.4933 35.8093 40.4933 35.8091C40.4933 35.8089 40.4933 35.8088 40.4933 35.8086C40.4933 35.8084 40.4933 35.8082 40.4933 35.8081C40.4933 35.8079 40.4933 35.8077 40.4933 35.8075C40.4933 35.8074 40.4933 35.8072 40.4933 35.807C40.4933 35.8068 40.4933 35.8067 40.4933 35.8065C40.4933 35.8063 40.4933 35.8061 40.4933 35.806C40.4933 35.8058 40.4933 35.8056 40.4933 35.8054C40.4933 35.8053 40.4933 35.8051 40.4933 35.8049C40.4933 35.8047 40.4933 35.8046 40.4933 35.8044C40.4933 35.8042 40.4933 35.804 40.4933 35.8039C40.4933 35.8037 40.4933 35.8035 40.4933 35.8033C40.4933 35.8032 40.4933 35.803 40.4933 35.8028C40.4933 35.8026 40.4933 35.8025 40.4933 35.8023C40.4933 35.8021 40.4933 35.8019 40.4933 35.8018C40.4933 35.8016 40.4933 35.8014 40.4933 35.8012C40.4933 35.8011 40.4933 35.8009 40.4933 35.8007C40.4933 35.8005 40.4933 35.8004 40.4933 35.8002C40.4933 35.8 40.4933 35.7998 40.4933 35.7997C40.4933 35.7995 40.4933 35.7993 40.4933 35.7991C40.4933 35.799 40.4933 35.7988 40.4933 35.7986C40.4933 35.7984 40.4933 35.7983 40.4933 35.7981C40.4933 35.7979 40.4933 35.7977 40.4933 35.7976C40.4933 35.7974 40.4933 35.7972 40.4933 35.797C40.4933 35.7969 40.4933 35.7967 40.4933 35.7965C40.4933 35.7963 40.4933 35.7962 40.4933 35.796C40.4933 35.7958 40.4933 35.7956 40.4933 35.7955C40.4933 35.7953 40.4933 35.7951 40.4933 35.7949C40.4933 35.7948 40.4933 35.7946 40.4933 35.7944C40.4933 35.7942 40.4933 35.7941 40.4933 35.7939C40.4933 35.7937 40.4933 35.7935 40.4933 35.7934C40.4933 35.7932 40.4933 35.793 40.4933 35.7928C40.4933 35.7927 40.4933 35.7925 40.4933 35.7923C40.4933 35.7921 40.4933 35.792 40.4933 35.7918C40.4933 35.7916 40.4933 35.7914 40.4933 35.7913C40.4933 35.7911 40.4933 35.7909 40.4933 35.7907C40.4933 35.7906 40.4933 35.7904 40.4933 35.7902C40.4933 35.79 40.4933 35.7899 40.4933 35.7897C40.4933 35.7895 40.4933 35.7893 40.4933 35.7892C40.4933 35.789 40.4933 35.7888 40.4933 35.7886C40.4933 35.7885 40.4933 35.7883 40.4933 35.7881C40.4933 35.7879 40.4933 35.7878 40.4933 35.7876C40.4933 35.7874 40.4933 35.7872 40.4933 35.7871C40.4933 35.7869 40.4933 35.7867 40.4933 35.7865C40.4933 35.7864 40.4933 35.7862 40.4933 35.786C40.4933 35.7858 40.4933 35.7857 40.4933 35.7855C40.4933 35.7853 40.4933 35.7851 40.4933 35.785H39.4933ZM39.5893 35.7591C39.3942 36.0267 39.3052 36.1901 39.1486 36.3624L39.8885 37.0351C40.0902 36.8132 40.2789 36.5107 40.3973 36.3483L39.5893 35.7591ZM39.1511 36.3596C38.1086 37.489 36.9123 38.4555 35.6324 39.3427L36.202 40.1646C37.5201 39.251 38.7784 38.2377 39.8859 37.0379L39.1511 36.3596ZM35.6308 39.3438C35.3952 39.5084 35.1643 39.5441 34.8313 39.4817L34.647 40.4645C35.174 40.5633 35.6956 40.5184 36.2036 40.1635L35.6308 39.3438ZM34.8279 39.481C33.5202 39.2452 32.2852 38.7858 31.1132 38.1457L30.6339 39.0233C31.8896 39.7091 33.2257 40.2083 34.6504 40.4652L34.8279 39.481ZM31.1141 38.1462C27.4794 36.1513 24.5984 33.3594 22.4064 29.8451L21.5579 30.3743C23.8362 34.0269 26.8409 36.9416 30.6329 39.0228L31.1141 38.1462ZM22.4062 29.8448C21.5452 28.4664 20.907 27.0011 20.5626 25.4125L19.5853 25.6244C19.9576 27.3415 20.6453 28.9132 21.5581 30.3746L22.4062 29.8448ZM20.5627 25.413C20.448 24.8817 20.4956 24.5202 20.7853 24.1719L20.0166 23.5324C19.4642 24.1964 19.4311 24.91 19.5852 25.6239L20.5627 25.413ZM20.7845 24.1729C21.1213 23.7701 21.4462 23.3578 21.7658 22.9533C22.087 22.5469 22.4035 22.1478 22.7311 21.7609L21.9678 21.1148C21.6279 21.5162 21.3017 21.9279 20.9812 22.3333C20.6592 22.7407 20.3435 23.1414 20.0174 23.5314L20.7845 24.1729ZM22.7299 21.7622C23.1885 21.2242 23.6401 20.7554 24.1986 20.433L23.6985 19.567C22.9848 19.9791 22.442 20.5585 21.9689 21.1135L22.7299 21.7622ZM23.9485 20.5C23.9487 20.5 23.9489 20.5 23.9491 20.5C23.9492 20.5 23.9494 20.5 23.9496 20.5C23.9498 20.5 23.9499 20.5 23.9501 20.5C23.9503 20.5 23.9505 20.5 23.9506 20.5C23.9508 20.5 23.951 20.5 23.9512 20.5C23.9513 20.5 23.9515 20.5 23.9517 20.5C23.9519 20.5 23.952 20.5 23.9522 20.5C23.9524 20.5 23.9526 20.5 23.9527 20.5C23.9529 20.5 23.9531 20.5 23.9533 20.5C23.9534 20.5 23.9536 20.5 23.9538 20.5C23.954 20.5 23.9541 20.5 23.9543 20.5C23.9545 20.5 23.9547 20.5 23.9548 20.5C23.955 20.5 23.9552 20.5 23.9554 20.5C23.9555 20.5 23.9557 20.5 23.9559 20.5C23.9561 20.5 23.9562 20.5 23.9564 20.5C23.9566 20.5 23.9568 20.5 23.9569 20.5C23.9571 20.5 23.9573 20.5 23.9575 20.5C23.9576 20.5 23.9578 20.5 23.958 20.5C23.9582 20.5 23.9583 20.5 23.9585 20.5C23.9587 20.5 23.9589 20.5 23.959 20.5C23.9592 20.5 23.9594 20.5 23.9596 20.5C23.9597 20.5 23.9599 20.5 23.9601 20.5C23.9603 20.5 23.9604 20.5 23.9606 20.5C23.9608 20.5 23.961 20.5 23.9611 20.5C23.9613 20.5 23.9615 20.5 23.9617 20.5C23.9618 20.5 23.962 20.5 23.9622 20.5C23.9624 20.5 23.9625 20.5 23.9627 20.5C23.9629 20.5 23.9631 20.5 23.9632 20.5C23.9634 20.5 23.9636 20.5 23.9638 20.5C23.9639 20.5 23.9641 20.5 23.9643 20.5C23.9645 20.5 23.9646 20.5 23.9648 20.5C23.965 20.5 23.9652 20.5 23.9653 20.5C23.9655 20.5 23.9657 20.5 23.9659 20.5C23.966 20.5 23.9662 20.5 23.9664 20.5C23.9666 20.5 23.9667 20.5 23.9669 20.5C23.9671 20.5 23.9673 20.5 23.9674 20.5C23.9676 20.5 23.9678 20.5 23.968 20.5C23.9681 20.5 23.9683 20.5 23.9685 20.5C23.9687 20.5 23.9688 20.5 23.969 20.5C23.9692 20.5 23.9694 20.5 23.9695 20.5C23.9697 20.5 23.9699 20.5 23.9701 20.5C23.9702 20.5 23.9704 20.5 23.9706 20.5C23.9708 20.5 23.9709 20.5 23.9711 20.5C23.9713 20.5 23.9715 20.5 23.9716 20.5C23.9718 20.5 23.972 20.5 23.9722 20.5C23.9723 20.5 23.9725 20.5 23.9727 20.5C23.9729 20.5 23.973 20.5 23.9732 20.5C23.9734 20.5 23.9736 20.5 23.9737 20.5C23.9739 20.5 23.9741 20.5 23.9743 20.5C23.9744 20.5 23.9746 20.5 23.9748 20.5C23.975 20.5 23.9751 20.5 23.9753 20.5C23.9755 20.5 23.9757 20.5 23.9758 20.5C23.976 20.5 23.9762 20.5 23.9764 20.5C23.9765 20.5 23.9767 20.5 23.9769 20.5C23.9771 20.5 23.9772 20.5 23.9774 20.5C23.9776 20.5 23.9778 20.5 23.9779 20.5C23.9781 20.5 23.9783 20.5 23.9785 20.5C23.9786 20.5 23.9788 20.5 23.979 20.5C23.9792 20.5 23.9793 20.5 23.9795 20.5C23.9797 20.5 23.9799 20.5 23.98 20.5C23.9802 20.5 23.9804 20.5 23.9806 20.5C23.9807 20.5 23.9809 20.5 23.9811 20.5C23.9813 20.5 23.9814 20.5 23.9816 20.5C23.9818 20.5 23.982 20.5 23.9821 20.5C23.9823 20.5 23.9825 20.5 23.9827 20.5C23.9828 20.5 23.983 20.5 23.9832 20.5C23.9834 20.5 23.9835 20.5 23.9837 20.5C23.9839 20.5 23.9841 20.5 23.9842 20.5C23.9844 20.5 23.9846 20.5 23.9848 20.5C23.9849 20.5 23.9851 20.5 23.9853 20.5C23.9855 20.5 23.9856 20.5 23.9858 20.5C23.986 20.5 23.9862 20.5 23.9863 20.5C23.9865 20.5 23.9867 20.5 23.9869 20.5C23.987 20.5 23.9872 20.5 23.9874 20.5C23.9876 20.5 23.9877 20.5 23.9879 20.5C23.9881 20.5 23.9883 20.5 23.9884 20.5C23.9886 20.5 23.9888 20.5 23.989 20.5C23.9891 20.5 23.9893 20.5 23.9895 20.5C23.9897 20.5 23.9898 20.5 23.99 20.5C23.9902 20.5 23.9904 20.5 23.9905 20.5C23.9907 20.5 23.9909 20.5 23.9911 20.5C23.9912 20.5 23.9914 20.5 23.9916 20.5C23.9918 20.5 23.9919 20.5 23.9921 20.5C23.9923 20.5 23.9925 20.5 23.9926 20.5C23.9928 20.5 23.993 20.5 23.9932 20.5C23.9933 20.5 23.9935 20.5 23.9937 20.5C23.9939 20.5 23.994 20.5 23.9942 20.5C23.9944 20.5 23.9946 20.5 23.9947 20.5C23.9949 20.5 23.9951 20.5 23.9953 20.5C23.9954 20.5 23.9956 20.5 23.9958 20.5C23.996 20.5 23.9961 20.5 23.9963 20.5C23.9965 20.5 23.9967 20.5 23.9968 20.5C23.997 20.5 23.9972 20.5 23.9974 20.5C23.9975 20.5 23.9977 20.5 23.9979 20.5C23.9981 20.5 23.9982 20.5 23.9984 20.5C23.9986 20.5 23.9988 20.5 23.9989 20.5C23.9991 20.5 23.9993 20.5 23.9995 20.5C23.9996 20.5 23.9998 20.5 24 20.5C24.0002 20.5 24.0003 20.5 24.0005 20.5C24.0007 20.5 24.0009 20.5 24.001 20.5C24.0012 20.5 24.0014 20.5 24.0016 20.5C24.0017 20.5 24.0019 20.5 24.0021 20.5C24.0023 20.5 24.0024 20.5 24.0026 20.5C24.0028 20.5 24.003 20.5 24.0031 20.5C24.0033 20.5 24.0035 20.5 24.0037 20.5C24.0038 20.5 24.004 20.5 24.0042 20.5C24.0044 20.5 24.0045 20.5 24.0047 20.5C24.0049 20.5 24.0051 20.5 24.0052 20.5C24.0054 20.5 24.0056 20.5 24.0058 20.5C24.0059 20.5 24.0061 20.5 24.0063 20.5C24.0065 20.5 24.0066 20.5 24.0068 20.5C24.007 20.5 24.0072 20.5 24.0073 20.5C24.0075 20.5 24.0077 20.5 24.0079 20.5C24.008 20.5 24.0082 20.5 24.0084 20.5C24.0086 20.5 24.0087 20.5 24.0089 20.5C24.0091 20.5 24.0093 20.5 24.0094 20.5C24.0096 20.5 24.0098 20.5 24.01 20.5C24.0101 20.5 24.0103 20.5 24.0105 20.5C24.0107 20.5 24.0108 20.5 24.011 20.5C24.0112 20.5 24.0114 20.5 24.0115 20.5C24.0117 20.5 24.0119 20.5 24.0121 20.5C24.0122 20.5 24.0124 20.5 24.0126 20.5C24.0128 20.5 24.0129 20.5 24.0131 20.5C24.0133 20.5 24.0135 20.5 24.0136 20.5C24.0138 20.5 24.014 20.5 24.0142 20.5C24.0143 20.5 24.0145 20.5 24.0147 20.5C24.0149 20.5 24.015 20.5 24.0152 20.5C24.0154 20.5 24.0156 20.5 24.0157 20.5C24.0159 20.5 24.0161 20.5 24.0163 20.5C24.0164 20.5 24.0166 20.5 24.0168 20.5C24.017 20.5 24.0171 20.5 24.0173 20.5C24.0175 20.5 24.0177 20.5 24.0178 20.5C24.018 20.5 24.0182 20.5 24.0184 20.5C24.0185 20.5 24.0187 20.5 24.0189 20.5C24.0191 20.5 24.0192 20.5 24.0194 20.5C24.0196 20.5 24.0198 20.5 24.0199 20.5C24.0201 20.5 24.0203 20.5 24.0205 20.5C24.0206 20.5 24.0208 20.5 24.021 20.5C24.0212 20.5 24.0213 20.5 24.0215 20.5C24.0217 20.5 24.0219 20.5 24.022 20.5C24.0222 20.5 24.0224 20.5 24.0226 20.5C24.0227 20.5 24.0229 20.5 24.0231 20.5C24.0233 20.5 24.0234 20.5 24.0236 20.5C24.0238 20.5 24.024 20.5 24.0241 20.5C24.0243 20.5 24.0245 20.5 24.0247 20.5C24.0248 20.5 24.025 20.5 24.0252 20.5C24.0254 20.5 24.0255 20.5 24.0257 20.5C24.0259 20.5 24.0261 20.5 24.0262 20.5C24.0264 20.5 24.0266 20.5 24.0268 20.5C24.0269 20.5 24.0271 20.5 24.0273 20.5C24.0275 20.5 24.0276 20.5 24.0278 20.5C24.028 20.5 24.0282 20.5 24.0283 20.5C24.0285 20.5 24.0287 20.5 24.0289 20.5C24.029 20.5 24.0292 20.5 24.0294 20.5C24.0296 20.5 24.0297 20.5 24.0299 20.5C24.0301 20.5 24.0303 20.5 24.0304 20.5C24.0306 20.5 24.0308 20.5 24.031 20.5C24.0311 20.5 24.0313 20.5 24.0315 20.5C24.0317 20.5 24.0318 20.5 24.032 20.5C24.0322 20.5 24.0324 20.5 24.0325 20.5C24.0327 20.5 24.0329 20.5 24.0331 20.5C24.0332 20.5 24.0334 20.5 24.0336 20.5C24.0338 20.5 24.0339 20.5 24.0341 20.5C24.0343 20.5 24.0345 20.5 24.0346 20.5C24.0348 20.5 24.035 20.5 24.0352 20.5C24.0353 20.5 24.0355 20.5 24.0357 20.5C24.0359 20.5 24.036 20.5 24.0362 20.5C24.0364 20.5 24.0366 20.5 24.0367 20.5C24.0369 20.5 24.0371 20.5 24.0373 20.5C24.0374 20.5 24.0376 20.5 24.0378 20.5C24.038 20.5 24.0381 20.5 24.0383 20.5C24.0385 20.5 24.0387 20.5 24.0388 20.5C24.039 20.5 24.0392 20.5 24.0394 20.5C24.0395 20.5 24.0397 20.5 24.0399 20.5C24.0401 20.5 24.0402 20.5 24.0404 20.5C24.0406 20.5 24.0408 20.5 24.0409 20.5C24.0411 20.5 24.0413 20.5 24.0415 20.5C24.0416 20.5 24.0418 20.5 24.042 20.5C24.0422 20.5 24.0423 20.5 24.0425 20.5C24.0427 20.5 24.0429 20.5 24.043 20.5C24.0432 20.5 24.0434 20.5 24.0436 20.5C24.0437 20.5 24.0439 20.5 24.0441 20.5C24.0443 20.5 24.0444 20.5 24.0446 20.5C24.0448 20.5 24.045 20.5 24.0451 20.5C24.0453 20.5 24.0455 20.5 24.0457 20.5C24.0458 20.5 24.046 20.5 24.0462 20.5C24.0464 20.5 24.0465 20.5 24.0467 20.5C24.0469 20.5 24.0471 20.5 24.0472 20.5C24.0474 20.5 24.0476 20.5 24.0478 20.5C24.0479 20.5 24.0481 20.5 24.0483 20.5C24.0485 20.5 24.0486 20.5 24.0488 20.5C24.049 20.5 24.0492 20.5 24.0493 20.5C24.0495 20.5 24.0497 20.5 24.0499 20.5C24.05 20.5 24.0502 20.5 24.0504 20.5C24.0506 20.5 24.0507 20.5 24.0509 20.5C24.0511 20.5 24.0513 20.5 24.0514 20.5C24.0516 20.5 24.0518 20.5 24.052 20.5C24.0521 20.5 24.0523 20.5 24.0525 20.5C24.0527 20.5 24.0528 20.5 24.053 20.5C24.0532 20.5 24.0534 20.5 24.0535 20.5C24.0537 20.5 24.0539 20.5 24.0541 20.5C24.0542 20.5 24.0544 20.5 24.0546 20.5C24.0548 20.5 24.0549 20.5 24.0551 20.5C24.0553 20.5 24.0555 20.5 24.0556 20.5C24.0558 20.5 24.056 20.5 24.0562 20.5C24.0563 20.5 24.0565 20.5 24.0567 20.5C24.0569 20.5 24.057 20.5 24.0572 20.5C24.0574 20.5 24.0576 20.5 24.0577 20.5C24.0579 20.5 24.0581 20.5 24.0583 20.5C24.0584 20.5 24.0586 20.5 24.0588 20.5C24.059 20.5 24.0591 20.5 24.0593 20.5C24.0595 20.5 24.0597 20.5 24.0598 20.5C24.06 20.5 24.0602 20.5 24.0604 20.5C24.0605 20.5 24.0607 20.5 24.0609 20.5C24.0611 20.5 24.0612 20.5 24.0614 20.5C24.0616 20.5 24.0618 20.5 24.0619 20.5C24.0621 20.5 24.0623 20.5 24.0625 20.5C24.0626 20.5 24.0628 20.5 24.063 20.5C24.0631 20.5 24.0633 20.5 24.0635 20.5C24.0637 20.5 24.0638 20.5 24.064 20.5C24.0642 20.5 24.0644 20.5 24.0645 20.5C24.0647 20.5 24.0649 20.5 24.0651 20.5C24.0652 20.5 24.0654 20.5 24.0656 20.5C24.0658 20.5 24.0659 20.5 24.0661 20.5C24.0663 20.5 24.0665 20.5 24.0666 20.5C24.0668 20.5 24.067 20.5 24.0672 20.5C24.0673 20.5 24.0675 20.5 24.0677 20.5C24.0679 20.5 24.068 20.5 24.0682 20.5C24.0684 20.5 24.0686 20.5 24.0687 20.5C24.0689 20.5 24.0691 20.5 24.0693 20.5C24.0694 20.5 24.0696 20.5 24.0698 20.5C24.07 20.5 24.0701 20.5 24.0703 20.5C24.0705 20.5 24.0707 20.5 24.0708 20.5C24.071 20.5 24.0712 20.5 24.0714 20.5C24.0715 20.5 24.0717 20.5 24.0719 20.5C24.0721 20.5 24.0722 20.5 24.0724 20.5C24.0726 20.5 24.0728 20.5 24.0729 20.5C24.0731 20.5 24.0733 20.5 24.0735 20.5C24.0736 20.5 24.0738 20.5 24.074 20.5C24.0742 20.5 24.0743 20.5 24.0745 20.5C24.0747 20.5 24.0749 20.5 24.075 20.5C24.0752 20.5 24.0754 20.5 24.0756 20.5C24.0757 20.5 24.0759 20.5 24.0761 20.5C24.0763 20.5 24.0764 20.5 24.0766 20.5C24.0768 20.5 24.077 20.5 24.0771 20.5C24.0773 20.5 24.0775 20.5 24.0777 20.5C24.0778 20.5 24.078 20.5 24.0782 20.5C24.0784 20.5 24.0785 20.5 24.0787 20.5C24.0789 20.5 24.0791 20.5 24.0792 20.5C24.0794 20.5 24.0796 20.5 24.0798 20.5C24.0799 20.5 24.0801 20.5 24.0803 20.5C24.0805 20.5 24.0806 20.5 24.0808 20.5C24.081 20.5 24.0812 20.5 24.0813 20.5C24.0815 20.5 24.0817 20.5 24.0819 20.5C24.082 20.5 24.0822 20.5 24.0824 20.5C24.0826 20.5 24.0827 20.5 24.0829 20.5C24.0831 20.5 24.0833 20.5 24.0834 20.5C24.0836 20.5 24.0838 20.5 24.084 20.5C24.0841 20.5 24.0843 20.5 24.0845 20.5C24.0847 20.5 24.0848 20.5 24.085 20.5C24.0852 20.5 24.0854 20.5 24.0855 20.5C24.0857 20.5 24.0859 20.5 24.0861 20.5C24.0862 20.5 24.0864 20.5 24.0866 20.5C24.0868 20.5 24.0869 20.5 24.0871 20.5C24.0873 20.5 24.0875 20.5 24.0876 20.5C24.0878 20.5 24.088 20.5 24.0882 20.5C24.0883 20.5 24.0885 20.5 24.0887 20.5C24.0889 20.5 24.089 20.5 24.0892 20.5C24.0894 20.5 24.0896 20.5 24.0897 20.5C24.0899 20.5 24.0901 20.5 24.0903 20.5C24.0904 20.5 24.0906 20.5 24.0908 20.5C24.091 20.5 24.0911 20.5 24.0913 20.5C24.0915 20.5 24.0917 20.5 24.0918 20.5C24.092 20.5 24.0922 20.5 24.0924 20.5C24.0925 20.5 24.0927 20.5 24.0929 20.5C24.0931 20.5 24.0932 20.5 24.0934 20.5C24.0936 20.5 24.0938 20.5 24.0939 20.5C24.0941 20.5 24.0943 20.5 24.0945 20.5C24.0946 20.5 24.0948 20.5 24.095 20.5C24.0952 20.5 24.0953 20.5 24.0955 20.5C24.0957 20.5 24.0959 20.5 24.096 20.5C24.0962 20.5 24.0964 20.5 24.0966 20.5C24.0967 20.5 24.0969 20.5 24.0971 20.5C24.0973 20.5 24.0974 20.5 24.0976 20.5C24.0978 20.5 24.098 20.5 24.0981 20.5C24.0983 20.5 24.0985 20.5 24.0987 20.5C24.0988 20.5 24.099 20.5 24.0992 20.5C24.0994 20.5 24.0995 20.5 24.0997 20.5C24.0999 20.5 24.1001 20.5 24.1002 20.5C24.1004 20.5 24.1006 20.5 24.1008 20.5C24.1009 20.5 24.1011 20.5 24.1013 20.5C24.1015 20.5 24.1016 20.5 24.1018 20.5C24.102 20.5 24.1022 20.5 24.1023 20.5C24.1025 20.5 24.1027 20.5 24.1029 20.5C24.103 20.5 24.1032 20.5 24.1034 20.5C24.1036 20.5 24.1037 20.5 24.1039 20.5C24.1041 20.5 24.1043 20.5 24.1044 20.5C24.1046 20.5 24.1048 20.5 24.105 20.5C24.1051 20.5 24.1053 20.5 24.1055 20.5C24.1057 20.5 24.1058 20.5 24.106 20.5C24.1062 20.5 24.1064 20.5 24.1065 20.5C24.1067 20.5 24.1069 20.5 24.1071 20.5C24.1072 20.5 24.1074 20.5 24.1076 20.5C24.1078 20.5 24.1079 20.5 24.1081 20.5C24.1083 20.5 24.1085 20.5 24.1086 20.5C24.1088 20.5 24.109 20.5 24.1092 20.5C24.1093 20.5 24.1095 20.5 24.1097 20.5C24.1099 20.5 24.11 20.5 24.1102 20.5C24.1104 20.5 24.1106 20.5 24.1107 20.5C24.1109 20.5 24.1111 20.5 24.1113 20.5C24.1114 20.5 24.1116 20.5 24.1118 20.5C24.112 20.5 24.1121 20.5 24.1123 20.5C24.1125 20.5 24.1127 20.5 24.1128 20.5C24.113 20.5 24.1132 20.5 24.1134 20.5C24.1135 20.5 24.1137 20.5 24.1139 20.5C24.1141 20.5 24.1142 20.5 24.1144 20.5C24.1146 20.5 24.1148 20.5 24.1149 20.5C24.1151 20.5 24.1153 20.5 24.1155 20.5C24.1156 20.5 24.1158 20.5 24.116 20.5C24.1162 20.5 24.1163 20.5 24.1165 20.5C24.1167 20.5 24.1169 20.5 24.117 20.5C24.1172 20.5 24.1174 20.5 24.1176 20.5C24.1177 20.5 24.1179 20.5 24.1181 20.5C24.1183 20.5 24.1184 20.5 24.1186 20.5C24.1188 20.5 24.119 20.5 24.1191 20.5C24.1193 20.5 24.1195 20.5 24.1197 20.5C24.1198 20.5 24.12 20.5 24.1202 20.5C24.1204 20.5 24.1205 20.5 24.1207 20.5C24.1209 20.5 24.1211 20.5 24.1212 20.5C24.1214 20.5 24.1216 20.5 24.1218 20.5C24.1219 20.5 24.1221 20.5 24.1223 20.5C24.1225 20.5 24.1226 20.5 24.1228 20.5C24.123 20.5 24.1232 20.5 24.1233 20.5C24.1235 20.5 24.1237 20.5 24.1239 20.5C24.124 20.5 24.1242 20.5 24.1244 20.5C24.1246 20.5 24.1247 20.5 24.1249 20.5C24.1251 20.5 24.1253 20.5 24.1254 20.5C24.1256 20.5 24.1258 20.5 24.126 20.5C24.1261 20.5 24.1263 20.5 24.1265 20.5C24.1267 20.5 24.1268 20.5 24.127 20.5C24.1272 20.5 24.1274 20.5 24.1275 20.5C24.1277 20.5 24.1279 20.5 24.1281 20.5C24.1282 20.5 24.1284 20.5 24.1286 20.5C24.1288 20.5 24.1289 20.5 24.1291 20.5C24.1293 20.5 24.1295 20.5 24.1296 20.5C24.1298 20.5 24.13 20.5 24.1302 20.5C24.1303 20.5 24.1305 20.5 24.1307 20.5C24.1309 20.5 24.131 20.5 24.1312 20.5C24.1314 20.5 24.1316 20.5 24.1317 20.5C24.1319 20.5 24.1321 20.5 24.1323 20.5C24.1324 20.5 24.1326 20.5 24.1328 20.5C24.133 20.5 24.1331 20.5 24.1333 20.5C24.1335 20.5 24.1337 20.5 24.1338 20.5C24.134 20.5 24.1342 20.5 24.1344 20.5C24.1345 20.5 24.1347 20.5 24.1349 20.5C24.1351 20.5 24.1352 20.5 24.1354 20.5C24.1356 20.5 24.1358 20.5 24.1359 20.5C24.1361 20.5 24.1363 20.5 24.1365 20.5C24.1366 20.5 24.1368 20.5 24.137 20.5C24.1372 20.5 24.1373 20.5 24.1375 20.5C24.1377 20.5 24.1379 20.5 24.138 20.5C24.1382 20.5 24.1384 20.5 24.1386 20.5C24.1387 20.5 24.1389 20.5 24.1391 20.5C24.1393 20.5 24.1394 20.5 24.1396 20.5C24.1398 20.5 24.14 20.5 24.1401 20.5C24.1403 20.5 24.1405 20.5 24.1407 20.5C24.1408 20.5 24.141 20.5 24.1412 20.5C24.1414 20.5 24.1415 20.5 24.1417 20.5C24.1419 20.5 24.1421 20.5 24.1422 20.5C24.1424 20.5 24.1426 20.5 24.1428 20.5C24.1429 20.5 24.1431 20.5 24.1433 20.5C24.1435 20.5 24.1436 20.5 24.1438 20.5C24.144 20.5 24.1442 20.5 24.1443 20.5C24.1445 20.5 24.1447 20.5 24.1449 20.5C24.145 20.5 24.1452 20.5 24.1454 20.5C24.1456 20.5 24.1457 20.5 24.1459 20.5C24.1461 20.5 24.1463 20.5 24.1464 20.5C24.1466 20.5 24.1468 20.5 24.147 20.5C24.1471 20.5 24.1473 20.5 24.1475 20.5C24.1477 20.5 24.1478 20.5 24.148 20.5C24.1482 20.5 24.1484 20.5 24.1485 20.5C24.1487 20.5 24.1489 20.5 24.1491 20.5C24.1492 20.5 24.1494 20.5 24.1496 20.5C24.1498 20.5 24.1499 20.5 24.1501 20.5C24.1503 20.5 24.1505 20.5 24.1506 20.5C24.1508 20.5 24.151 20.5 24.1512 20.5C24.1513 20.5 24.1515 20.5 24.1517 20.5C24.1519 20.5 24.152 20.5 24.1522 20.5C24.1524 20.5 24.1526 20.5 24.1527 20.5C24.1529 20.5 24.1531 20.5 24.1533 20.5C24.1534 20.5 24.1536 20.5 24.1538 20.5C24.154 20.5 24.1541 20.5 24.1543 20.5C24.1545 20.5 24.1547 20.5 24.1548 20.5C24.155 20.5 24.1552 20.5 24.1554 20.5C24.1555 20.5 24.1557 20.5 24.1559 20.5C24.1561 20.5 24.1562 20.5 24.1564 20.5C24.1566 20.5 24.1568 20.5 24.1569 20.5C24.1571 20.5 24.1573 20.5 24.1575 20.5C24.1576 20.5 24.1578 20.5 24.158 20.5C24.1582 20.5 24.1583 20.5 24.1585 20.5C24.1587 20.5 24.1589 20.5 24.159 20.5C24.1592 20.5 24.1594 20.5 24.1596 20.5C24.1597 20.5 24.1599 20.5 24.1601 20.5C24.1603 20.5 24.1604 20.5 24.1606 20.5C24.1608 20.5 24.161 20.5 24.1611 20.5C24.1613 20.5 24.1615 20.5 24.1617 20.5C24.1618 20.5 24.162 20.5 24.1622 20.5C24.1624 20.5 24.1625 20.5 24.1627 20.5C24.1629 20.5 24.1631 20.5 24.1632 20.5C24.1634 20.5 24.1636 20.5 24.1638 20.5C24.1639 20.5 24.1641 20.5 24.1643 20.5C24.1645 20.5 24.1646 20.5 24.1648 20.5C24.165 20.5 24.1652 20.5 24.1653 20.5C24.1655 20.5 24.1657 20.5 24.1659 20.5C24.166 20.5 24.1662 20.5 24.1664 20.5C24.1666 20.5 24.1667 20.5 24.1669 20.5C24.1671 20.5 24.1673 20.5 24.1674 20.5C24.1676 20.5 24.1678 20.5 24.168 20.5C24.1681 20.5 24.1683 20.5 24.1685 20.5C24.1687 20.5 24.1688 20.5 24.169 20.5C24.1692 20.5 24.1694 20.5 24.1695 20.5C24.1697 20.5 24.1699 20.5 24.1701 20.5C24.1702 20.5 24.1704 20.5 24.1706 20.5C24.1708 20.5 24.1709 20.5 24.1711 20.5C24.1713 20.5 24.1715 20.5 24.1716 20.5C24.1718 20.5 24.172 20.5 24.1722 20.5C24.1723 20.5 24.1725 20.5 24.1727 20.5C24.1729 20.5 24.173 20.5 24.1732 20.5C24.1734 20.5 24.1736 20.5 24.1737 20.5C24.1739 20.5 24.1741 20.5 24.1743 20.5C24.1744 20.5 24.1746 20.5 24.1748 20.5C24.175 20.5 24.1751 20.5 24.1753 20.5C24.1755 20.5 24.1757 20.5 24.1758 20.5C24.176 20.5 24.1762 20.5 24.1764 20.5C24.1765 20.5 24.1767 20.5 24.1769 20.5C24.1771 20.5 24.1772 20.5 24.1774 20.5C24.1776 20.5 24.1778 20.5 24.1779 20.5C24.1781 20.5 24.1783 20.5 24.1785 20.5C24.1786 20.5 24.1788 20.5 24.179 20.5C24.1792 20.5 24.1793 20.5 24.1795 20.5C24.1797 20.5 24.1799 20.5 24.18 20.5C24.1802 20.5 24.1804 20.5 24.1806 20.5C24.1807 20.5 24.1809 20.5 24.1811 20.5C24.1813 20.5 24.1814 20.5 24.1816 20.5C24.1818 20.5 24.182 20.5 24.1821 20.5C24.1823 20.5 24.1825 20.5 24.1827 20.5C24.1828 20.5 24.183 20.5 24.1832 20.5C24.1834 20.5 24.1835 20.5 24.1837 20.5C24.1839 20.5 24.1841 20.5 24.1842 20.5C24.1844 20.5 24.1846 20.5 24.1848 20.5C24.1849 20.5 24.1851 20.5 24.1853 20.5C24.1855 20.5 24.1856 20.5 24.1858 20.5C24.186 20.5 24.1862 20.5 24.1863 20.5C24.1865 20.5 24.1867 20.5 24.1869 20.5C24.187 20.5 24.1872 20.5 24.1874 20.5C24.1876 20.5 24.1877 20.5 24.1879 20.5C24.1881 20.5 24.1883 20.5 24.1884 20.5C24.1886 20.5 24.1888 20.5 24.189 20.5C24.1891 20.5 24.1893 20.5 24.1895 20.5C24.1897 20.5 24.1898 20.5 24.19 20.5C24.1902 20.5 24.1904 20.5 24.1905 20.5C24.1907 20.5 24.1909 20.5 24.1911 20.5C24.1912 20.5 24.1914 20.5 24.1916 20.5C24.1918 20.5 24.1919 20.5 24.1921 20.5C24.1923 20.5 24.1925 20.5 24.1926 20.5C24.1928 20.5 24.193 20.5 24.1932 20.5C24.1933 20.5 24.1935 20.5 24.1937 20.5C24.1939 20.5 24.194 20.5 24.1942 20.5C24.1944 20.5 24.1946 20.5 24.1947 20.5C24.1949 20.5 24.1951 20.5 24.1953 20.5C24.1954 20.5 24.1956 20.5 24.1958 20.5C24.196 20.5 24.1961 20.5 24.1963 20.5C24.1965 20.5 24.1967 20.5 24.1968 20.5C24.197 20.5 24.1972 20.5 24.1974 20.5C24.1975 20.5 24.1977 20.5 24.1979 20.5C24.1981 20.5 24.1982 20.5 24.1984 20.5C24.1986 20.5 24.1988 20.5 24.1989 20.5C24.1991 20.5 24.1993 20.5 24.1995 20.5C24.1996 20.5 24.1998 20.5 24.2 20.5C24.2002 20.5 24.2003 20.5 24.2005 20.5C24.2007 20.5 24.2009 20.5 24.201 20.5C24.2012 20.5 24.2014 20.5 24.2016 20.5C24.2017 20.5 24.2019 20.5 24.2021 20.5C24.2023 20.5 24.2024 20.5 24.2026 20.5C24.2028 20.5 24.203 20.5 24.2031 20.5C24.2033 20.5 24.2035 20.5 24.2037 20.5C24.2038 20.5 24.204 20.5 24.2042 20.5C24.2044 20.5 24.2045 20.5 24.2047 20.5C24.2049 20.5 24.2051 20.5 24.2052 20.5C24.2054 20.5 24.2056 20.5 24.2058 20.5C24.2059 20.5 24.2061 20.5 24.2063 20.5C24.2065 20.5 24.2066 20.5 24.2068 20.5C24.207 20.5 24.2072 20.5 24.2073 20.5C24.2075 20.5 24.2077 20.5 24.2079 20.5C24.208 20.5 24.2082 20.5 24.2084 20.5C24.2086 20.5 24.2087 20.5 24.2089 20.5C24.2091 20.5 24.2093 20.5 24.2094 20.5C24.2096 20.5 24.2098 20.5 24.21 20.5C24.2101 20.5 24.2103 20.5 24.2105 20.5C24.2107 20.5 24.2108 20.5 24.211 20.5C24.2112 20.5 24.2114 20.5 24.2115 20.5C24.2117 20.5 24.2119 20.5 24.2121 20.5C24.2122 20.5 24.2124 20.5 24.2126 20.5C24.2128 20.5 24.2129 20.5 24.2131 20.5C24.2133 20.5 24.2135 20.5 24.2136 20.5C24.2138 20.5 24.214 20.5 24.2142 20.5C24.2143 20.5 24.2145 20.5 24.2147 20.5C24.2149 20.5 24.215 20.5 24.2152 20.5C24.2154 20.5 24.2156 20.5 24.2157 20.5C24.2159 20.5 24.2161 20.5 24.2163 20.5C24.2164 20.5 24.2166 20.5 24.2168 20.5C24.217 20.5 24.2171 20.5 24.2173 20.5V19.5C24.2171 19.5 24.217 19.5 24.2168 19.5C24.2166 19.5 24.2164 19.5 24.2163 19.5C24.2161 19.5 24.2159 19.5 24.2157 19.5C24.2156 19.5 24.2154 19.5 24.2152 19.5C24.215 19.5 24.2149 19.5 24.2147 19.5C24.2145 19.5 24.2143 19.5 24.2142 19.5C24.214 19.5 24.2138 19.5 24.2136 19.5C24.2135 19.5 24.2133 19.5 24.2131 19.5C24.2129 19.5 24.2128 19.5 24.2126 19.5C24.2124 19.5 24.2122 19.5 24.2121 19.5C24.2119 19.5 24.2117 19.5 24.2115 19.5C24.2114 19.5 24.2112 19.5 24.211 19.5C24.2108 19.5 24.2107 19.5 24.2105 19.5C24.2103 19.5 24.2101 19.5 24.21 19.5C24.2098 19.5 24.2096 19.5 24.2094 19.5C24.2093 19.5 24.2091 19.5 24.2089 19.5C24.2087 19.5 24.2086 19.5 24.2084 19.5C24.2082 19.5 24.208 19.5 24.2079 19.5C24.2077 19.5 24.2075 19.5 24.2073 19.5C24.2072 19.5 24.207 19.5 24.2068 19.5C24.2066 19.5 24.2065 19.5 24.2063 19.5C24.2061 19.5 24.2059 19.5 24.2058 19.5C24.2056 19.5 24.2054 19.5 24.2052 19.5C24.2051 19.5 24.2049 19.5 24.2047 19.5C24.2045 19.5 24.2044 19.5 24.2042 19.5C24.204 19.5 24.2038 19.5 24.2037 19.5C24.2035 19.5 24.2033 19.5 24.2031 19.5C24.203 19.5 24.2028 19.5 24.2026 19.5C24.2024 19.5 24.2023 19.5 24.2021 19.5C24.2019 19.5 24.2017 19.5 24.2016 19.5C24.2014 19.5 24.2012 19.5 24.201 19.5C24.2009 19.5 24.2007 19.5 24.2005 19.5C24.2003 19.5 24.2002 19.5 24.2 19.5C24.1998 19.5 24.1996 19.5 24.1995 19.5C24.1993 19.5 24.1991 19.5 24.1989 19.5C24.1988 19.5 24.1986 19.5 24.1984 19.5C24.1982 19.5 24.1981 19.5 24.1979 19.5C24.1977 19.5 24.1975 19.5 24.1974 19.5C24.1972 19.5 24.197 19.5 24.1968 19.5C24.1967 19.5 24.1965 19.5 24.1963 19.5C24.1961 19.5 24.196 19.5 24.1958 19.5C24.1956 19.5 24.1954 19.5 24.1953 19.5C24.1951 19.5 24.1949 19.5 24.1947 19.5C24.1946 19.5 24.1944 19.5 24.1942 19.5C24.194 19.5 24.1939 19.5 24.1937 19.5C24.1935 19.5 24.1933 19.5 24.1932 19.5C24.193 19.5 24.1928 19.5 24.1926 19.5C24.1925 19.5 24.1923 19.5 24.1921 19.5C24.1919 19.5 24.1918 19.5 24.1916 19.5C24.1914 19.5 24.1912 19.5 24.1911 19.5C24.1909 19.5 24.1907 19.5 24.1905 19.5C24.1904 19.5 24.1902 19.5 24.19 19.5C24.1898 19.5 24.1897 19.5 24.1895 19.5C24.1893 19.5 24.1891 19.5 24.189 19.5C24.1888 19.5 24.1886 19.5 24.1884 19.5C24.1883 19.5 24.1881 19.5 24.1879 19.5C24.1877 19.5 24.1876 19.5 24.1874 19.5C24.1872 19.5 24.187 19.5 24.1869 19.5C24.1867 19.5 24.1865 19.5 24.1863 19.5C24.1862 19.5 24.186 19.5 24.1858 19.5C24.1856 19.5 24.1855 19.5 24.1853 19.5C24.1851 19.5 24.1849 19.5 24.1848 19.5C24.1846 19.5 24.1844 19.5 24.1842 19.5C24.1841 19.5 24.1839 19.5 24.1837 19.5C24.1835 19.5 24.1834 19.5 24.1832 19.5C24.183 19.5 24.1828 19.5 24.1827 19.5C24.1825 19.5 24.1823 19.5 24.1821 19.5C24.182 19.5 24.1818 19.5 24.1816 19.5C24.1814 19.5 24.1813 19.5 24.1811 19.5C24.1809 19.5 24.1807 19.5 24.1806 19.5C24.1804 19.5 24.1802 19.5 24.18 19.5C24.1799 19.5 24.1797 19.5 24.1795 19.5C24.1793 19.5 24.1792 19.5 24.179 19.5C24.1788 19.5 24.1786 19.5 24.1785 19.5C24.1783 19.5 24.1781 19.5 24.1779 19.5C24.1778 19.5 24.1776 19.5 24.1774 19.5C24.1772 19.5 24.1771 19.5 24.1769 19.5C24.1767 19.5 24.1765 19.5 24.1764 19.5C24.1762 19.5 24.176 19.5 24.1758 19.5C24.1757 19.5 24.1755 19.5 24.1753 19.5C24.1751 19.5 24.175 19.5 24.1748 19.5C24.1746 19.5 24.1744 19.5 24.1743 19.5C24.1741 19.5 24.1739 19.5 24.1737 19.5C24.1736 19.5 24.1734 19.5 24.1732 19.5C24.173 19.5 24.1729 19.5 24.1727 19.5C24.1725 19.5 24.1723 19.5 24.1722 19.5C24.172 19.5 24.1718 19.5 24.1716 19.5C24.1715 19.5 24.1713 19.5 24.1711 19.5C24.1709 19.5 24.1708 19.5 24.1706 19.5C24.1704 19.5 24.1702 19.5 24.1701 19.5C24.1699 19.5 24.1697 19.5 24.1695 19.5C24.1694 19.5 24.1692 19.5 24.169 19.5C24.1688 19.5 24.1687 19.5 24.1685 19.5C24.1683 19.5 24.1681 19.5 24.168 19.5C24.1678 19.5 24.1676 19.5 24.1674 19.5C24.1673 19.5 24.1671 19.5 24.1669 19.5C24.1667 19.5 24.1666 19.5 24.1664 19.5C24.1662 19.5 24.166 19.5 24.1659 19.5C24.1657 19.5 24.1655 19.5 24.1653 19.5C24.1652 19.5 24.165 19.5 24.1648 19.5C24.1646 19.5 24.1645 19.5 24.1643 19.5C24.1641 19.5 24.1639 19.5 24.1638 19.5C24.1636 19.5 24.1634 19.5 24.1632 19.5C24.1631 19.5 24.1629 19.5 24.1627 19.5C24.1625 19.5 24.1624 19.5 24.1622 19.5C24.162 19.5 24.1618 19.5 24.1617 19.5C24.1615 19.5 24.1613 19.5 24.1611 19.5C24.161 19.5 24.1608 19.5 24.1606 19.5C24.1604 19.5 24.1603 19.5 24.1601 19.5C24.1599 19.5 24.1597 19.5 24.1596 19.5C24.1594 19.5 24.1592 19.5 24.159 19.5C24.1589 19.5 24.1587 19.5 24.1585 19.5C24.1583 19.5 24.1582 19.5 24.158 19.5C24.1578 19.5 24.1576 19.5 24.1575 19.5C24.1573 19.5 24.1571 19.5 24.1569 19.5C24.1568 19.5 24.1566 19.5 24.1564 19.5C24.1562 19.5 24.1561 19.5 24.1559 19.5C24.1557 19.5 24.1555 19.5 24.1554 19.5C24.1552 19.5 24.155 19.5 24.1548 19.5C24.1547 19.5 24.1545 19.5 24.1543 19.5C24.1541 19.5 24.154 19.5 24.1538 19.5C24.1536 19.5 24.1534 19.5 24.1533 19.5C24.1531 19.5 24.1529 19.5 24.1527 19.5C24.1526 19.5 24.1524 19.5 24.1522 19.5C24.152 19.5 24.1519 19.5 24.1517 19.5C24.1515 19.5 24.1513 19.5 24.1512 19.5C24.151 19.5 24.1508 19.5 24.1506 19.5C24.1505 19.5 24.1503 19.5 24.1501 19.5C24.1499 19.5 24.1498 19.5 24.1496 19.5C24.1494 19.5 24.1492 19.5 24.1491 19.5C24.1489 19.5 24.1487 19.5 24.1485 19.5C24.1484 19.5 24.1482 19.5 24.148 19.5C24.1478 19.5 24.1477 19.5 24.1475 19.5C24.1473 19.5 24.1471 19.5 24.147 19.5C24.1468 19.5 24.1466 19.5 24.1464 19.5C24.1463 19.5 24.1461 19.5 24.1459 19.5C24.1457 19.5 24.1456 19.5 24.1454 19.5C24.1452 19.5 24.145 19.5 24.1449 19.5C24.1447 19.5 24.1445 19.5 24.1443 19.5C24.1442 19.5 24.144 19.5 24.1438 19.5C24.1436 19.5 24.1435 19.5 24.1433 19.5C24.1431 19.5 24.1429 19.5 24.1428 19.5C24.1426 19.5 24.1424 19.5 24.1422 19.5C24.1421 19.5 24.1419 19.5 24.1417 19.5C24.1415 19.5 24.1414 19.5 24.1412 19.5C24.141 19.5 24.1408 19.5 24.1407 19.5C24.1405 19.5 24.1403 19.5 24.1401 19.5C24.14 19.5 24.1398 19.5 24.1396 19.5C24.1394 19.5 24.1393 19.5 24.1391 19.5C24.1389 19.5 24.1387 19.5 24.1386 19.5C24.1384 19.5 24.1382 19.5 24.138 19.5C24.1379 19.5 24.1377 19.5 24.1375 19.5C24.1373 19.5 24.1372 19.5 24.137 19.5C24.1368 19.5 24.1366 19.5 24.1365 19.5C24.1363 19.5 24.1361 19.5 24.1359 19.5C24.1358 19.5 24.1356 19.5 24.1354 19.5C24.1352 19.5 24.1351 19.5 24.1349 19.5C24.1347 19.5 24.1345 19.5 24.1344 19.5C24.1342 19.5 24.134 19.5 24.1338 19.5C24.1337 19.5 24.1335 19.5 24.1333 19.5C24.1331 19.5 24.133 19.5 24.1328 19.5C24.1326 19.5 24.1324 19.5 24.1323 19.5C24.1321 19.5 24.1319 19.5 24.1317 19.5C24.1316 19.5 24.1314 19.5 24.1312 19.5C24.131 19.5 24.1309 19.5 24.1307 19.5C24.1305 19.5 24.1303 19.5 24.1302 19.5C24.13 19.5 24.1298 19.5 24.1296 19.5C24.1295 19.5 24.1293 19.5 24.1291 19.5C24.1289 19.5 24.1288 19.5 24.1286 19.5C24.1284 19.5 24.1282 19.5 24.1281 19.5C24.1279 19.5 24.1277 19.5 24.1275 19.5C24.1274 19.5 24.1272 19.5 24.127 19.5C24.1268 19.5 24.1267 19.5 24.1265 19.5C24.1263 19.5 24.1261 19.5 24.126 19.5C24.1258 19.5 24.1256 19.5 24.1254 19.5C24.1253 19.5 24.1251 19.5 24.1249 19.5C24.1247 19.5 24.1246 19.5 24.1244 19.5C24.1242 19.5 24.124 19.5 24.1239 19.5C24.1237 19.5 24.1235 19.5 24.1233 19.5C24.1232 19.5 24.123 19.5 24.1228 19.5C24.1226 19.5 24.1225 19.5 24.1223 19.5C24.1221 19.5 24.1219 19.5 24.1218 19.5C24.1216 19.5 24.1214 19.5 24.1212 19.5C24.1211 19.5 24.1209 19.5 24.1207 19.5C24.1205 19.5 24.1204 19.5 24.1202 19.5C24.12 19.5 24.1198 19.5 24.1197 19.5C24.1195 19.5 24.1193 19.5 24.1191 19.5C24.119 19.5 24.1188 19.5 24.1186 19.5C24.1184 19.5 24.1183 19.5 24.1181 19.5C24.1179 19.5 24.1177 19.5 24.1176 19.5C24.1174 19.5 24.1172 19.5 24.117 19.5C24.1169 19.5 24.1167 19.5 24.1165 19.5C24.1163 19.5 24.1162 19.5 24.116 19.5C24.1158 19.5 24.1156 19.5 24.1155 19.5C24.1153 19.5 24.1151 19.5 24.1149 19.5C24.1148 19.5 24.1146 19.5 24.1144 19.5C24.1142 19.5 24.1141 19.5 24.1139 19.5C24.1137 19.5 24.1135 19.5 24.1134 19.5C24.1132 19.5 24.113 19.5 24.1128 19.5C24.1127 19.5 24.1125 19.5 24.1123 19.5C24.1121 19.5 24.112 19.5 24.1118 19.5C24.1116 19.5 24.1114 19.5 24.1113 19.5C24.1111 19.5 24.1109 19.5 24.1107 19.5C24.1106 19.5 24.1104 19.5 24.1102 19.5C24.11 19.5 24.1099 19.5 24.1097 19.5C24.1095 19.5 24.1093 19.5 24.1092 19.5C24.109 19.5 24.1088 19.5 24.1086 19.5C24.1085 19.5 24.1083 19.5 24.1081 19.5C24.1079 19.5 24.1078 19.5 24.1076 19.5C24.1074 19.5 24.1072 19.5 24.1071 19.5C24.1069 19.5 24.1067 19.5 24.1065 19.5C24.1064 19.5 24.1062 19.5 24.106 19.5C24.1058 19.5 24.1057 19.5 24.1055 19.5C24.1053 19.5 24.1051 19.5 24.105 19.5C24.1048 19.5 24.1046 19.5 24.1044 19.5C24.1043 19.5 24.1041 19.5 24.1039 19.5C24.1037 19.5 24.1036 19.5 24.1034 19.5C24.1032 19.5 24.103 19.5 24.1029 19.5C24.1027 19.5 24.1025 19.5 24.1023 19.5C24.1022 19.5 24.102 19.5 24.1018 19.5C24.1016 19.5 24.1015 19.5 24.1013 19.5C24.1011 19.5 24.1009 19.5 24.1008 19.5C24.1006 19.5 24.1004 19.5 24.1002 19.5C24.1001 19.5 24.0999 19.5 24.0997 19.5C24.0995 19.5 24.0994 19.5 24.0992 19.5C24.099 19.5 24.0988 19.5 24.0987 19.5C24.0985 19.5 24.0983 19.5 24.0981 19.5C24.098 19.5 24.0978 19.5 24.0976 19.5C24.0974 19.5 24.0973 19.5 24.0971 19.5C24.0969 19.5 24.0967 19.5 24.0966 19.5C24.0964 19.5 24.0962 19.5 24.096 19.5C24.0959 19.5 24.0957 19.5 24.0955 19.5C24.0953 19.5 24.0952 19.5 24.095 19.5C24.0948 19.5 24.0946 19.5 24.0945 19.5C24.0943 19.5 24.0941 19.5 24.0939 19.5C24.0938 19.5 24.0936 19.5 24.0934 19.5C24.0932 19.5 24.0931 19.5 24.0929 19.5C24.0927 19.5 24.0925 19.5 24.0924 19.5C24.0922 19.5 24.092 19.5 24.0918 19.5C24.0917 19.5 24.0915 19.5 24.0913 19.5C24.0911 19.5 24.091 19.5 24.0908 19.5C24.0906 19.5 24.0904 19.5 24.0903 19.5C24.0901 19.5 24.0899 19.5 24.0897 19.5C24.0896 19.5 24.0894 19.5 24.0892 19.5C24.089 19.5 24.0889 19.5 24.0887 19.5C24.0885 19.5 24.0883 19.5 24.0882 19.5C24.088 19.5 24.0878 19.5 24.0876 19.5C24.0875 19.5 24.0873 19.5 24.0871 19.5C24.0869 19.5 24.0868 19.5 24.0866 19.5C24.0864 19.5 24.0862 19.5 24.0861 19.5C24.0859 19.5 24.0857 19.5 24.0855 19.5C24.0854 19.5 24.0852 19.5 24.085 19.5C24.0848 19.5 24.0847 19.5 24.0845 19.5C24.0843 19.5 24.0841 19.5 24.084 19.5C24.0838 19.5 24.0836 19.5 24.0834 19.5C24.0833 19.5 24.0831 19.5 24.0829 19.5C24.0827 19.5 24.0826 19.5 24.0824 19.5C24.0822 19.5 24.082 19.5 24.0819 19.5C24.0817 19.5 24.0815 19.5 24.0813 19.5C24.0812 19.5 24.081 19.5 24.0808 19.5C24.0806 19.5 24.0805 19.5 24.0803 19.5C24.0801 19.5 24.0799 19.5 24.0798 19.5C24.0796 19.5 24.0794 19.5 24.0792 19.5C24.0791 19.5 24.0789 19.5 24.0787 19.5C24.0785 19.5 24.0784 19.5 24.0782 19.5C24.078 19.5 24.0778 19.5 24.0777 19.5C24.0775 19.5 24.0773 19.5 24.0771 19.5C24.077 19.5 24.0768 19.5 24.0766 19.5C24.0764 19.5 24.0763 19.5 24.0761 19.5C24.0759 19.5 24.0757 19.5 24.0756 19.5C24.0754 19.5 24.0752 19.5 24.075 19.5C24.0749 19.5 24.0747 19.5 24.0745 19.5C24.0743 19.5 24.0742 19.5 24.074 19.5C24.0738 19.5 24.0736 19.5 24.0735 19.5C24.0733 19.5 24.0731 19.5 24.0729 19.5C24.0728 19.5 24.0726 19.5 24.0724 19.5C24.0722 19.5 24.0721 19.5 24.0719 19.5C24.0717 19.5 24.0715 19.5 24.0714 19.5C24.0712 19.5 24.071 19.5 24.0708 19.5C24.0707 19.5 24.0705 19.5 24.0703 19.5C24.0701 19.5 24.07 19.5 24.0698 19.5C24.0696 19.5 24.0694 19.5 24.0693 19.5C24.0691 19.5 24.0689 19.5 24.0687 19.5C24.0686 19.5 24.0684 19.5 24.0682 19.5C24.068 19.5 24.0679 19.5 24.0677 19.5C24.0675 19.5 24.0673 19.5 24.0672 19.5C24.067 19.5 24.0668 19.5 24.0666 19.5C24.0665 19.5 24.0663 19.5 24.0661 19.5C24.0659 19.5 24.0658 19.5 24.0656 19.5C24.0654 19.5 24.0652 19.5 24.0651 19.5C24.0649 19.5 24.0647 19.5 24.0645 19.5C24.0644 19.5 24.0642 19.5 24.064 19.5C24.0638 19.5 24.0637 19.5 24.0635 19.5C24.0633 19.5 24.0631 19.5 24.063 19.5C24.0628 19.5 24.0626 19.5 24.0625 19.5C24.0623 19.5 24.0621 19.5 24.0619 19.5C24.0618 19.5 24.0616 19.5 24.0614 19.5C24.0612 19.5 24.0611 19.5 24.0609 19.5C24.0607 19.5 24.0605 19.5 24.0604 19.5C24.0602 19.5 24.06 19.5 24.0598 19.5C24.0597 19.5 24.0595 19.5 24.0593 19.5C24.0591 19.5 24.059 19.5 24.0588 19.5C24.0586 19.5 24.0584 19.5 24.0583 19.5C24.0581 19.5 24.0579 19.5 24.0577 19.5C24.0576 19.5 24.0574 19.5 24.0572 19.5C24.057 19.5 24.0569 19.5 24.0567 19.5C24.0565 19.5 24.0563 19.5 24.0562 19.5C24.056 19.5 24.0558 19.5 24.0556 19.5C24.0555 19.5 24.0553 19.5 24.0551 19.5C24.0549 19.5 24.0548 19.5 24.0546 19.5C24.0544 19.5 24.0542 19.5 24.0541 19.5C24.0539 19.5 24.0537 19.5 24.0535 19.5C24.0534 19.5 24.0532 19.5 24.053 19.5C24.0528 19.5 24.0527 19.5 24.0525 19.5C24.0523 19.5 24.0521 19.5 24.052 19.5C24.0518 19.5 24.0516 19.5 24.0514 19.5C24.0513 19.5 24.0511 19.5 24.0509 19.5C24.0507 19.5 24.0506 19.5 24.0504 19.5C24.0502 19.5 24.05 19.5 24.0499 19.5C24.0497 19.5 24.0495 19.5 24.0493 19.5C24.0492 19.5 24.049 19.5 24.0488 19.5C24.0486 19.5 24.0485 19.5 24.0483 19.5C24.0481 19.5 24.0479 19.5 24.0478 19.5C24.0476 19.5 24.0474 19.5 24.0472 19.5C24.0471 19.5 24.0469 19.5 24.0467 19.5C24.0465 19.5 24.0464 19.5 24.0462 19.5C24.046 19.5 24.0458 19.5 24.0457 19.5C24.0455 19.5 24.0453 19.5 24.0451 19.5C24.045 19.5 24.0448 19.5 24.0446 19.5C24.0444 19.5 24.0443 19.5 24.0441 19.5C24.0439 19.5 24.0437 19.5 24.0436 19.5C24.0434 19.5 24.0432 19.5 24.043 19.5C24.0429 19.5 24.0427 19.5 24.0425 19.5C24.0423 19.5 24.0422 19.5 24.042 19.5C24.0418 19.5 24.0416 19.5 24.0415 19.5C24.0413 19.5 24.0411 19.5 24.0409 19.5C24.0408 19.5 24.0406 19.5 24.0404 19.5C24.0402 19.5 24.0401 19.5 24.0399 19.5C24.0397 19.5 24.0395 19.5 24.0394 19.5C24.0392 19.5 24.039 19.5 24.0388 19.5C24.0387 19.5 24.0385 19.5 24.0383 19.5C24.0381 19.5 24.038 19.5 24.0378 19.5C24.0376 19.5 24.0374 19.5 24.0373 19.5C24.0371 19.5 24.0369 19.5 24.0367 19.5C24.0366 19.5 24.0364 19.5 24.0362 19.5C24.036 19.5 24.0359 19.5 24.0357 19.5C24.0355 19.5 24.0353 19.5 24.0352 19.5C24.035 19.5 24.0348 19.5 24.0346 19.5C24.0345 19.5 24.0343 19.5 24.0341 19.5C24.0339 19.5 24.0338 19.5 24.0336 19.5C24.0334 19.5 24.0332 19.5 24.0331 19.5C24.0329 19.5 24.0327 19.5 24.0325 19.5C24.0324 19.5 24.0322 19.5 24.032 19.5C24.0318 19.5 24.0317 19.5 24.0315 19.5C24.0313 19.5 24.0311 19.5 24.031 19.5C24.0308 19.5 24.0306 19.5 24.0304 19.5C24.0303 19.5 24.0301 19.5 24.0299 19.5C24.0297 19.5 24.0296 19.5 24.0294 19.5C24.0292 19.5 24.029 19.5 24.0289 19.5C24.0287 19.5 24.0285 19.5 24.0283 19.5C24.0282 19.5 24.028 19.5 24.0278 19.5C24.0276 19.5 24.0275 19.5 24.0273 19.5C24.0271 19.5 24.0269 19.5 24.0268 19.5C24.0266 19.5 24.0264 19.5 24.0262 19.5C24.0261 19.5 24.0259 19.5 24.0257 19.5C24.0255 19.5 24.0254 19.5 24.0252 19.5C24.025 19.5 24.0248 19.5 24.0247 19.5C24.0245 19.5 24.0243 19.5 24.0241 19.5C24.024 19.5 24.0238 19.5 24.0236 19.5C24.0234 19.5 24.0233 19.5 24.0231 19.5C24.0229 19.5 24.0227 19.5 24.0226 19.5C24.0224 19.5 24.0222 19.5 24.022 19.5C24.0219 19.5 24.0217 19.5 24.0215 19.5C24.0213 19.5 24.0212 19.5 24.021 19.5C24.0208 19.5 24.0206 19.5 24.0205 19.5C24.0203 19.5 24.0201 19.5 24.0199 19.5C24.0198 19.5 24.0196 19.5 24.0194 19.5C24.0192 19.5 24.0191 19.5 24.0189 19.5C24.0187 19.5 24.0185 19.5 24.0184 19.5C24.0182 19.5 24.018 19.5 24.0178 19.5C24.0177 19.5 24.0175 19.5 24.0173 19.5C24.0171 19.5 24.017 19.5 24.0168 19.5C24.0166 19.5 24.0164 19.5 24.0163 19.5C24.0161 19.5 24.0159 19.5 24.0157 19.5C24.0156 19.5 24.0154 19.5 24.0152 19.5C24.015 19.5 24.0149 19.5 24.0147 19.5C24.0145 19.5 24.0143 19.5 24.0142 19.5C24.014 19.5 24.0138 19.5 24.0136 19.5C24.0135 19.5 24.0133 19.5 24.0131 19.5C24.0129 19.5 24.0128 19.5 24.0126 19.5C24.0124 19.5 24.0122 19.5 24.0121 19.5C24.0119 19.5 24.0117 19.5 24.0115 19.5C24.0114 19.5 24.0112 19.5 24.011 19.5C24.0108 19.5 24.0107 19.5 24.0105 19.5C24.0103 19.5 24.0101 19.5 24.01 19.5C24.0098 19.5 24.0096 19.5 24.0094 19.5C24.0093 19.5 24.0091 19.5 24.0089 19.5C24.0087 19.5 24.0086 19.5 24.0084 19.5C24.0082 19.5 24.008 19.5 24.0079 19.5C24.0077 19.5 24.0075 19.5 24.0073 19.5C24.0072 19.5 24.007 19.5 24.0068 19.5C24.0066 19.5 24.0065 19.5 24.0063 19.5C24.0061 19.5 24.0059 19.5 24.0058 19.5C24.0056 19.5 24.0054 19.5 24.0052 19.5C24.0051 19.5 24.0049 19.5 24.0047 19.5C24.0045 19.5 24.0044 19.5 24.0042 19.5C24.004 19.5 24.0038 19.5 24.0037 19.5C24.0035 19.5 24.0033 19.5 24.0031 19.5C24.003 19.5 24.0028 19.5 24.0026 19.5C24.0024 19.5 24.0023 19.5 24.0021 19.5C24.0019 19.5 24.0017 19.5 24.0016 19.5C24.0014 19.5 24.0012 19.5 24.001 19.5C24.0009 19.5 24.0007 19.5 24.0005 19.5C24.0003 19.5 24.0002 19.5 24 19.5C23.9998 19.5 23.9996 19.5 23.9995 19.5C23.9993 19.5 23.9991 19.5 23.9989 19.5C23.9988 19.5 23.9986 19.5 23.9984 19.5C23.9982 19.5 23.9981 19.5 23.9979 19.5C23.9977 19.5 23.9975 19.5 23.9974 19.5C23.9972 19.5 23.997 19.5 23.9968 19.5C23.9967 19.5 23.9965 19.5 23.9963 19.5C23.9961 19.5 23.996 19.5 23.9958 19.5C23.9956 19.5 23.9954 19.5 23.9953 19.5C23.9951 19.5 23.9949 19.5 23.9947 19.5C23.9946 19.5 23.9944 19.5 23.9942 19.5C23.994 19.5 23.9939 19.5 23.9937 19.5C23.9935 19.5 23.9933 19.5 23.9932 19.5C23.993 19.5 23.9928 19.5 23.9926 19.5C23.9925 19.5 23.9923 19.5 23.9921 19.5C23.9919 19.5 23.9918 19.5 23.9916 19.5C23.9914 19.5 23.9912 19.5 23.9911 19.5C23.9909 19.5 23.9907 19.5 23.9905 19.5C23.9904 19.5 23.9902 19.5 23.99 19.5C23.9898 19.5 23.9897 19.5 23.9895 19.5C23.9893 19.5 23.9891 19.5 23.989 19.5C23.9888 19.5 23.9886 19.5 23.9884 19.5C23.9883 19.5 23.9881 19.5 23.9879 19.5C23.9877 19.5 23.9876 19.5 23.9874 19.5C23.9872 19.5 23.987 19.5 23.9869 19.5C23.9867 19.5 23.9865 19.5 23.9863 19.5C23.9862 19.5 23.986 19.5 23.9858 19.5C23.9856 19.5 23.9855 19.5 23.9853 19.5C23.9851 19.5 23.9849 19.5 23.9848 19.5C23.9846 19.5 23.9844 19.5 23.9842 19.5C23.9841 19.5 23.9839 19.5 23.9837 19.5C23.9835 19.5 23.9834 19.5 23.9832 19.5C23.983 19.5 23.9828 19.5 23.9827 19.5C23.9825 19.5 23.9823 19.5 23.9821 19.5C23.982 19.5 23.9818 19.5 23.9816 19.5C23.9814 19.5 23.9813 19.5 23.9811 19.5C23.9809 19.5 23.9807 19.5 23.9806 19.5C23.9804 19.5 23.9802 19.5 23.98 19.5C23.9799 19.5 23.9797 19.5 23.9795 19.5C23.9793 19.5 23.9792 19.5 23.979 19.5C23.9788 19.5 23.9786 19.5 23.9785 19.5C23.9783 19.5 23.9781 19.5 23.9779 19.5C23.9778 19.5 23.9776 19.5 23.9774 19.5C23.9772 19.5 23.9771 19.5 23.9769 19.5C23.9767 19.5 23.9765 19.5 23.9764 19.5C23.9762 19.5 23.976 19.5 23.9758 19.5C23.9757 19.5 23.9755 19.5 23.9753 19.5C23.9751 19.5 23.975 19.5 23.9748 19.5C23.9746 19.5 23.9744 19.5 23.9743 19.5C23.9741 19.5 23.9739 19.5 23.9737 19.5C23.9736 19.5 23.9734 19.5 23.9732 19.5C23.973 19.5 23.9729 19.5 23.9727 19.5C23.9725 19.5 23.9723 19.5 23.9722 19.5C23.972 19.5 23.9718 19.5 23.9716 19.5C23.9715 19.5 23.9713 19.5 23.9711 19.5C23.9709 19.5 23.9708 19.5 23.9706 19.5C23.9704 19.5 23.9702 19.5 23.9701 19.5C23.9699 19.5 23.9697 19.5 23.9695 19.5C23.9694 19.5 23.9692 19.5 23.969 19.5C23.9688 19.5 23.9687 19.5 23.9685 19.5C23.9683 19.5 23.9681 19.5 23.968 19.5C23.9678 19.5 23.9676 19.5 23.9674 19.5C23.9673 19.5 23.9671 19.5 23.9669 19.5C23.9667 19.5 23.9666 19.5 23.9664 19.5C23.9662 19.5 23.966 19.5 23.9659 19.5C23.9657 19.5 23.9655 19.5 23.9653 19.5C23.9652 19.5 23.965 19.5 23.9648 19.5C23.9646 19.5 23.9645 19.5 23.9643 19.5C23.9641 19.5 23.9639 19.5 23.9638 19.5C23.9636 19.5 23.9634 19.5 23.9632 19.5C23.9631 19.5 23.9629 19.5 23.9627 19.5C23.9625 19.5 23.9624 19.5 23.9622 19.5C23.962 19.5 23.9618 19.5 23.9617 19.5C23.9615 19.5 23.9613 19.5 23.9611 19.5C23.961 19.5 23.9608 19.5 23.9606 19.5C23.9604 19.5 23.9603 19.5 23.9601 19.5C23.9599 19.5 23.9597 19.5 23.9596 19.5C23.9594 19.5 23.9592 19.5 23.959 19.5C23.9589 19.5 23.9587 19.5 23.9585 19.5C23.9583 19.5 23.9582 19.5 23.958 19.5C23.9578 19.5 23.9576 19.5 23.9575 19.5C23.9573 19.5 23.9571 19.5 23.9569 19.5C23.9568 19.5 23.9566 19.5 23.9564 19.5C23.9562 19.5 23.9561 19.5 23.9559 19.5C23.9557 19.5 23.9555 19.5 23.9554 19.5C23.9552 19.5 23.955 19.5 23.9548 19.5C23.9547 19.5 23.9545 19.5 23.9543 19.5C23.9541 19.5 23.954 19.5 23.9538 19.5C23.9536 19.5 23.9534 19.5 23.9533 19.5C23.9531 19.5 23.9529 19.5 23.9527 19.5C23.9526 19.5 23.9524 19.5 23.9522 19.5C23.952 19.5 23.9519 19.5 23.9517 19.5C23.9515 19.5 23.9513 19.5 23.9512 19.5C23.951 19.5 23.9508 19.5 23.9506 19.5C23.9505 19.5 23.9503 19.5 23.9501 19.5C23.9499 19.5 23.9498 19.5 23.9496 19.5C23.9494 19.5 23.9492 19.5 23.9491 19.5C23.9489 19.5 23.9487 19.5 23.9485 19.5V20.5Z" fill="#E4F0F6" mask="url(#path-2-inside-1_4_6502)"/>
<path d="M39.9933 29.2945C39.5275 29.2945 39.0572 29.2945 38.5689 29.2945C38.5196 27.1355 37.7806 25.2721 36.2576 23.7446C34.7346 22.2172 32.8757 21.4692 30.6943 21.4199C30.6943 20.9451 30.6943 20.4703 30.6943 19.9955C30.9049 19.9955 31.1109 19.9955 31.3214 19.9955C31.7873 20.0716 32.2621 20.1254 32.7235 20.2239C36.2934 20.9899 39.1691 23.9641 39.8186 27.5476C39.8858 27.9193 39.9351 28.2911 39.9888 28.6674C39.9933 28.8779 39.9933 29.0884 39.9933 29.2945Z" fill="#32A7E2"/>
<path d="M36.4099 29.2855C35.9351 29.2855 35.4782 29.2855 34.9944 29.2855C34.9586 28.1164 34.5555 27.0952 33.7223 26.262C32.8937 25.4378 31.8813 25.0302 30.7078 24.9989C30.7078 24.524 30.7078 24.0672 30.7078 23.6058C33.3237 23.449 36.4054 25.7648 36.4099 29.2855Z" fill="#32A7E2"/>
</g>
<defs>
<clipPath id="clip0_4_6502">
<rect width="19.9866" height="20" fill="white" transform="translate(20.0067 20)"/>
</clipPath>
</defs>
</svg>
